<svg id="Capa_1" enable-background="new 0 0 512 512" height="512" viewBox="0 0 512 512" width="512" xmlns="http://www.w3.org/2000/svg"><g><g><path d="m347.023 355.86c-3.62 3.62-5.86 8.62-5.86 14.14 0 11.05 8.95 20 20 20v15.17c0 13.71-11.12 24.83-24.83 24.83h-65.17v-50c0-5.52-2.24-10.52-5.86-14.14s-8.62-5.86-14.14-5.86c-11.05 0-20 8.95-20 20v50h-65.17c-13.71 0-24.83-11.12-24.83-24.83v-15.17c11.05 0 20-8.95 20-20 0-5.52-2.24-10.52-5.86-14.14s-8.62-5.86-14.14-5.86v-40h220v40c-5.52 0-10.52 2.24-14.14 5.86z" fill="#e7e9ef"/><path d="m388.653 187.5v72.92c0 10.81-8.77 19.58-19.58 19.58h-235.84c-10.81 0-19.58-8.77-19.58-19.58v-72.92c0-37.97 15.39-72.34 40.27-97.23 24.88-24.88 59.26-40.27 97.23-40.27 75.94 0 137.5 61.56 137.5 137.5z" fill="#e7e9ef"/><path d="m161.163 370c0 11.05-8.95 20-20 20h-20c-11.05 0-20 8.95-20 20v92h-40v-92.33c0-32.96 26.71-59.67 59.67-59.67h20.33c5.52 0 10.52 2.24 14.14 5.86s5.86 8.62 5.86 14.14z" fill="#8690af"/><path d="m141.163 280h220v40h-220z" fill="#b278d3"/><g fill="#8690af"><circle cx="251.153" cy="170" r="60"/><path d="m271.163 380v122h-40v-122c0-11.05 8.95-20 20-20 5.52 0 10.52 2.24 14.14 5.86s5.86 8.62 5.86 14.14z"/><path d="m441.163 409.67v92.33h-40v-92c0-11.05-8.95-20-20-20h-20c-11.05 0-20-8.95-20-20 0-5.52 2.24-10.52 5.86-14.14s8.62-5.86 14.14-5.86h20.33c32.96 0 59.67 26.71 59.67 59.67z"/></g><circle cx="251.153" cy="170" fill="#a0c8ff" r="20"/></g><g><path d="m486.366 133.991c-5.522 0-10.004 4.481-10.004 10.004s4.481 10.005 10.004 10.005 10.005-4.481 10.005-10.004-4.483-10.005-10.005-10.005z"/><circle cx="65.638" cy="90" r="10.004"/><circle cx="25.634" cy="147.487" r="10.004"/><path d="m446.366 49.996h10v10c0 5.523 4.478 10 10 10s10-4.477 10-10v-10h10c5.522 0 10-4.477 10-10s-4.478-10-10-10h-10v-10c0-5.523-4.478-10-10-10s-10 4.477-10 10v10h-10c-5.522 0-10 4.477-10 10s4.477 10 10 10z"/><path d="m251.153 200c16.542 0 30-13.458 30-30s-13.458-30-30-30-30 13.458-30 30 13.458 30 30 30zm0-40c5.514 0 10 4.486 10 10s-4.486 10-10 10-10-4.486-10-10 4.486-10 10-10z"/><path d="m251.153 240c38.598 0 70-31.402 70-70s-31.402-70-70-70-70 31.402-70 70 31.402 70 70 70zm0-120c27.57 0 50 22.43 50 50s-22.43 50-50 50-50-22.43-50-50 22.43-50 50-50z"/><path d="m466.163 492h-15v-82.33c0-38.416-31.254-69.67-69.67-69.67h-10.33v-50.082c15.338-1.076 27.49-13.889 27.49-29.496v-72.922c0-77.97-60.815-141.993-137.5-147.153v-30.347c0-5.523-4.478-10-10-10-5.523 0-10 4.477-10 10v30.347c-76.685 5.16-137.5 69.183-137.5 147.153v72.922c0 15.614 12.163 28.431 27.51 29.498v50.08h-10.333c-38.414 0-69.667 31.252-69.667 69.667v82.333h-15c-5.523 0-10 4.477-10 10s4.477 10 10 10h90c5.523 0 10-4.477 10-10s-4.477-10-10-10h-15v-82c0-5.514 4.486-10 10-10h10v5.17c0 19.206 15.625 34.83 34.83 34.83h55.17v52h-16c-5.523 0-10 4.477-10 10s4.477 10 10 10h90c5.522 0 10-4.477 10-10s-4.478-10-10-10h-14v-52h55.17c19.205 0 34.83-15.625 34.83-34.83v-5.17h10c5.514 0 10 4.486 10 10v82h-15c-5.522 0-10 4.477-10 10s4.478 10 10 10h90c5.522 0 10-4.477 10-10s-4.478-10-10-10zm-342.51-231.578v-72.922c0-70.304 57.196-127.5 127.5-127.5s127.5 57.196 127.5 127.5v72.922c0 5.281-4.297 9.578-9.578 9.578h-235.844c-5.281 0-9.578-4.297-9.578-9.578zm-32.49 149.578v82h-20v-82.333c0-27.386 22.28-49.667 49.667-49.667h20.333c5.514 0 10 4.486 10 10s-4.486 10-10 10h-20c-16.542 0-30 13.458-30 30zm150 82v-112c0-5.514 4.486-10 10-10s10 4.486 10 10v112zm95.17-72h-55.17v-40c0-16.542-13.458-30-30-30s-30 13.458-30 30v40h-55.17c-8.177 0-14.83-6.653-14.83-14.83v-6.89c11.639-4.128 20-15.243 20-28.28s-8.361-24.152-20-28.28v-11.72h95c5.523 0 10-4.477 10-10s-4.477-10-10-10h-95v-20h200v20h-25c-5.522 0-10 4.477-10 10s4.478 10 10 10h25v11.704c-4.168 1.471-7.991 3.866-11.211 7.085-5.668 5.668-8.789 13.201-8.789 21.211 0 13.036 8.361 24.152 20 28.28v6.89c0 8.177-6.653 14.83-14.83 14.83zm44.83-40h-20c-5.514 0-10-4.486-10-10 0-2.668 1.041-5.179 2.931-7.068 1.891-1.891 4.401-2.932 7.069-2.932h20.33c27.388 0 49.67 22.282 49.67 49.67v82.33h-20v-82c0-16.542-13.458-30-30-30z"/><circle cx="286.158" cy="319.995" r="10.005"/></g></g></svg>