<svg id="Capa_1" enable-background="new 0 0 512.5 512.5" height="512" viewBox="0 0 512.5 512.5" width="512" xmlns="http://www.w3.org/2000/svg"><g><g><path d="m296.26 66.97v43.03h-79.94v-43.03c0-39.97 39.97-56.97 39.97-56.97s9.99 4.25 19.98 13.5c10 9.24 19.99 23.48 19.99 43.47z" fill="#e7e9ef"/><path d="m315.72 150h-118.93c1.9-15.05 8.73-29.14 19.53-40h79.94l.02.02c10.77 10.871 17.56 24.95 19.44 39.98z" fill="#a0c8ff"/><path d="m316.25 305.11v144.89h-119.53l-.17-110-.06-34.82v-1.87c.12-1.11.28-2.22.47-3.31 4.78-28.43 29.53-50.08 59.32-50.08 16.62 0 31.66 6.73 42.55 17.62 8.63 8.63 14.66 19.88 16.78 32.46.28 1.68.5 3.38.64 5.11z" fill="#cfd3df"/><path d="m316.25 158.541v31.459h-119.95l-.04-26.78v-.01l-.01-4.58c0-2.9.18-5.78.54-8.63h118.93c.35 2.821.53 5.67.53 8.541z" fill="#e7e9ef"/><path d="m316.25 190v115.11c-.14-1.73-.36-3.43-.64-5.11-2.12-12.58-8.15-23.83-16.78-32.46-10.89-10.89-25.93-17.62-42.55-17.62-29.79 0-54.54 21.65-59.32 50.08-.19 1.09-.35 2.2-.47 3.31l-.01-3.31-.18-110z" fill="#e7e9ef"/><circle cx="256.25" cy="310" fill="#ffc144" r="20"/><path d="m196.55 340h-183.4v-.16c0-14.68 4.58-28.44 12.53-39.84h170.8l.01 3.31v1.87z" fill="#a0c8ff"/><path d="m196.48 300h-170.8c9.32-13.37 23.29-23.47 39.93-27.94 6.91-1.85 13.7-4.07 20.34-6.64 11.73-4.51 22.99-10.11 33.64-16.69 9.28-5.74 18.1-12.22 26.35-19.4 19.69-17.1 36.22-38.12 48.29-62.28l2.03-3.83.04 26.78z" fill="#cfd3df"/><path d="m486.82 300h-170.57v-137l2.02 4.05c12.06 24.13 28.55 45.13 48.21 62.21 8.28 7.2 17.12 13.71 26.43 19.47 10.62 6.57 21.86 12.15 33.56 16.66 6.66 2.58 13.48 4.81 20.42 6.67 16.64 4.471 30.61 14.57 39.93 27.94z" fill="#cfd3df"/><path d="m499.35 339.84v.16h-183.1v-40h170.57c7.95 11.4 12.53 25.16 12.53 39.84z" fill="#a0c8ff"/><path d="m426.47 340v28.51c0 5.91-4.45 10.77-10.18 11.41-.42.06-.86.08-1.3.08h-37.09c-.52 0-1.03-.03-1.53-.1-5.63-.75-9.96-5.56-9.96-11.39v-28.51z" fill="#8690af"/><path d="m424.32 442.88c0 11.77-6.97 26.68-13.94 38.64s-13.94 20.98-13.94 20.98-27.87-35.77-27.87-59.62c0-7.7 3.12-14.67 8.16-19.72 1.16-1.16 2.43-2.22 3.79-3.16h31.85c1.36.94 2.62 2 3.79 3.16 5.04 5.05 8.16 12.02 8.16 19.72z" fill="#ff5a58"/><path d="m436.32 420h-80l20.05-40.1c.5.07 1.01.1 1.53.1h37.09c.44 0 .88-.02 1.3-.08z" fill="#cfd3df"/><path d="m146.01 340v28.51c0 5.83-4.33 10.64-9.96 11.39-.5.07-1.01.1-1.53.1h-37.09c-.44 0-.87-.02-1.29-.07-5.73-.64-10.19-5.51-10.19-11.42v-28.51z" fill="#8690af"/><path d="m143.85 442.88c0 23.85-27.87 59.62-27.87 59.62s-6.97-9.02-13.94-20.98-13.94-26.87-13.94-38.64c0-7.7 3.12-14.67 8.16-19.72 1.17-1.16 2.43-2.22 3.79-3.16h31.85c1.36.94 2.63 2 3.79 3.16 5.04 5.05 8.16 12.02 8.16 19.72z" fill="#ff5a58"/><path d="m156.1 420h-80l20.04-40.07c.42.05.85.07 1.29.07h37.09c.52 0 1.03-.03 1.53-.1z" fill="#cfd3df"/><path d="m301.09 450v7.15c0 24.77-20.08 44.84-44.84 44.84-12.38 0-23.59-5.02-31.7-13.13-8.12-8.12-13.14-19.32-13.14-31.71v-7.15z" fill="#e7e9ef"/><g fill="#8690af"><path d="m145.94 187.63v41.7c-8.25 7.18-17.07 13.66-26.35 19.4-10.65 6.58-21.91 12.18-33.64 16.69v-77.84c0-11.46 2.8-22.56 7.94-32.45 5.15-9.89 12.64-18.55 22.02-25.13l.51.36c16.89 12.04 27.53 30.85 29.26 51.32.17 1.97.26 3.961.26 5.95z"/><path d="m426.47 187.581v77.81c-11.7-4.51-22.94-10.09-33.56-16.66-9.31-5.76-18.15-12.27-26.43-19.47v-41.63c0-1.99.09-3.98.26-5.95 1.73-20.47 12.37-39.28 29.26-51.32l.51-.36c9.38 6.58 16.87 15.24 22.02 25.13 5.14 9.89 7.94 20.99 7.94 32.45z"/></g></g><g><path d="m256.25 280c-16.542 0-30 13.458-30 30s13.458 30 30 30 30-13.458 30-30-13.458-30-30-30zm0 40c-5.514 0-10-4.486-10-10s4.486-10 10-10 10 4.486 10 10-4.486 10-10 10z"/><path d="m495.647 295.302c-.351-.658-.777-1.269-1.261-1.829-10.626-14.827-26.279-26.077-44.903-31.073-4.387-1.177-8.725-2.511-13.008-3.991v-70.823c0-12.828-3.137-25.646-9.076-37.075-5.936-11.402-14.633-21.326-25.153-28.699-3.457-2.421-8.062-2.414-11.51.022l-.54.382c-19.246 13.718-31.428 35.086-33.422 58.613-.195 2.277-.294 24.61-.294 24.611.011-2.521-8.832-10.481-10.585-12.796-3.573-4.719-6.928-9.602-10.05-14.63-7.158-11.527-8.534-21.869-11.071-34.748-2.722-13.814-9.124-26.725-18.508-37.228v-39.068c0-46.054-44.176-65.372-46.056-66.172-2.501-1.064-5.327-1.064-7.828 0-1.88.8-46.056 20.118-46.056 66.172v39.06c0 2.082-6.818 8.7-8.149 10.828-2.738 4.375-5.042 9.021-6.865 13.85-5.02 13.299-3.202 27.222-10.153 39.667-7.047 12.619-15.529 24.431-25.217 35.156 0 0-.099-22.428-.294-24.692-1.996-23.537-14.178-44.904-33.461-58.65l-.506-.357c-3.446-2.432-8.05-2.44-11.506-.019-10.519 7.373-19.217 17.297-25.156 28.705-5.935 11.423-9.072 24.241-9.072 37.068v70.85c-4.257 1.47-8.568 2.794-12.928 3.964-18.617 4.995-34.264 16.237-44.89 31.056-.494.569-.927 1.191-1.284 1.862-8.698 12.876-13.697 28.262-13.697 44.526v.156c0 5.522 4.477 10 10 10h62.799v18.513c0 6.2 2.655 11.778 6.87 15.704l-15.657 31.312c-1.55 3.1-1.384 6.781.438 9.729s5.041 4.743 8.506 4.743h4.237c-1.469 4.077-2.237 8.42-2.237 12.88 0 11.56 5.147 26.253 15.3 43.675 7.216 12.382 14.366 21.671 14.667 22.06 1.889 2.445 4.803 3.88 7.913 3.886 3.083 0 5.993-1.422 7.888-3.854 3.069-3.938 29.982-39.246 29.982-65.767 0-4.46-.768-8.803-2.238-12.88h4.488c3.466 0 6.685-1.795 8.506-4.743 1.822-2.947 1.988-6.629.438-9.729l-15.734-31.468c4.116-3.917 6.698-9.431 6.698-15.548v-18.513h30.544l.16 100.016c.009 5.517 4.483 9.984 10 9.984h4.77c1.486 28.919 25.481 51.99 54.763 51.99s53.277-23.071 54.763-51.99h5.237c5.523 0 10-4.478 10-10v-100h30.158v18.513c0 6.116 2.582 11.63 6.698 15.547l-15.734 31.468c-1.55 3.1-1.384 6.781.438 9.729s5.041 4.743 8.506 4.743h4.487c-1.469 4.077-2.237 8.42-2.237 12.88 0 26.521 26.913 61.828 29.982 65.767 1.895 2.432 4.806 3.854 7.908 3.854 3.09-.006 6.003-1.44 7.893-3.885.301-.39 7.452-9.679 14.667-22.061 10.152-17.42 15.3-32.114 15.3-43.675 0-4.459-.768-8.801-2.239-12.88h4.239c3.466 0 6.685-1.795 8.506-4.743 1.822-2.947 1.988-6.629.438-9.729l-15.656-31.312c4.214-3.926 6.87-9.504 6.87-15.704v-18.512h62.879c5.523 0 10-4.478 10-10v-.157c.002-16.27-5.001-31.662-13.705-44.541zm-118.946-112.774c1.307-15.411 8.43-29.585 19.792-39.777 5.349 4.821 9.834 10.597 13.162 16.987 4.461 8.586 6.819 18.216 6.819 27.848v62.626c-6.266-2.99-12.377-6.32-18.306-9.983-7.613-4.707-14.856-9.916-21.689-15.583v-37.01c0-1.672.074-3.386.222-5.108zm10.953 74.714c17.475 10.805 36.803 19.151 56.646 24.475 6.636 1.78 12.769 4.615 18.239 8.284h-136.289v-90.359c16.357 23.005 37.174 42.618 61.404 57.6zm-180.953 182.758-.215-134.177c2.118-25.606 23.621-45.799 49.764-45.799 27.542 0 49.95 22.407 49.95 49.95 0 .333.018.662.05.986v129.04zm13.992-320h71.193c5.131 5.919 8.972 12.7 11.383 20h-94.01c2.426-7.303 6.283-14.084 11.434-20zm-14.441 40h99.998v20h-99.966zm.065 40h99.934v61.123c-12.709-13.005-30.423-21.099-50-21.099-19.492 0-37.139 8.022-49.836 20.927zm49.96-178.804c8.908 5.011 29.988 19.635 29.988 45.774v33.03h-59.94v-33.03c0-26.258 20.993-40.775 29.952-45.774zm-160.331 166.389c0-9.631 2.358-19.261 6.816-27.841 3.329-6.395 7.815-12.171 13.163-16.992 11.374 10.208 18.489 24.374 19.795 39.788.147 1.708.222 42.169.222 42.169-6.809 5.641-14.024 10.829-21.606 15.516-5.956 3.679-12.095 7.024-18.39 10.024zm33.978 202.415 10 20h-7.881c-.02 0-.039 0-.059 0h-32.028c-.01 0-.02 0-.029 0h-7.643l10-20zm-1.308 40.225c3.378 3.384 5.238 7.879 5.238 12.655 0 12.078-9.736 29.851-17.832 42.243-1.691-2.593-3.518-5.515-5.338-8.639-8.112-13.92-12.58-25.854-12.58-33.604 0-4.776 1.86-9.271 5.202-12.619.093-.092.192-.171.286-.261h24.778c.08.077.168.147.246.225zm7.396-61.712c0 .82-.667 1.487-1.487 1.487h-37.092c-.82 0-1.487-.667-1.487-1.487v-18.513h40.066zm-112.042-38.513c1.201-7.121 3.685-13.879 7.236-20h45.119c5.523 0 10-4.478 10-10s-4.477-10-10-10h-26.363c5.47-3.669 11.603-6.504 18.239-8.284 19.766-5.303 39.114-13.645 56.649-24.477 24.26-15 45.1-34.646 61.466-57.69l.145 90.451h-30.21c-5.523 0-10 4.478-10 10s4.477 10 10 10h30.051c.002.664.069 1.313.194 1.94l.029 18.06zm232.28 161.991c-18.25 0-33.256-14.109-34.71-31.99h69.421c-1.455 17.881-16.461 31.99-34.711 31.99zm153.886-101.991 10 20h-7.647c-.004 0-.009 0-.013 0h-39.98l10-20zm-1.058 40.225c3.378 3.384 5.238 7.878 5.238 12.655 0 7.751-4.468 19.685-12.58 33.604-1.82 3.124-3.647 6.047-5.338 8.639-8.097-12.394-17.832-30.166-17.832-42.243 0-4.776 1.86-9.271 5.231-12.648.081-.081.171-.152.253-.231h24.78c.082.076.17.146.248.224zm7.396-61.712c0 .82-.667 1.487-1.487 1.487h-37.092c-.82 0-1.487-.667-1.487-1.487v-18.513h40.066zm-90.224-38.513v-20h155.044c3.551 6.121 6.035 12.879 7.236 20z"/><circle cx="116.25" cy="300.005" r="10.005"/></g></g></svg>