<svg id="Capa_1" enable-background="new 0 0 512.166 512.166" height="512" viewBox="0 0 512.166 512.166" width="512" xmlns="http://www.w3.org/2000/svg"><g><g><circle cx="115.921" cy="395.938" fill="#80b6ff" r="92.813"/><circle cx="91.582" cy="120.078" fill="#ff5a58" r="20"/><circle cx="276.113" cy="238.593" fill="#ffc144" r="61.531"/><circle cx="476.082" cy="35.5" fill="#b278d3" r="25.5"/><circle cx="388.71" cy="125.237" fill="#5cd0b3" r="36.128"/></g><g><path d="m91.582 150.077c16.542 0 30-13.458 30-30s-13.458-30-30-30-30 13.458-30 30 13.458 30 30 30zm0-40c5.514 0 10 4.486 10 10s-4.486 10-10 10-10-4.486-10-10 4.485-10 10-10z"/><path d="m151.582 48.938c5.523 0 10.004-4.482 10.004-10.005s-4.481-10.004-10.004-10.004-10.004 4.481-10.004 10.004 4.481 10.005 10.004 10.005z"/><circle cx="460.582" cy="400" r="10.004"/><path d="m51.582 209.129c-5.523 0-10.004 4.481-10.004 10.004s4.481 10.005 10.004 10.005 10.004-4.482 10.004-10.005-4.481-10.004-10.004-10.004z"/><circle cx="480.582" cy="460" r="10.004"/><path d="m19.582 58.934h10v10c0 5.522 4.477 10 10 10s10-4.478 10-10v-10h10c5.523 0 10-4.478 10-10s-4.477-10-10-10h-10v-10c0-5.522-4.477-10-10-10s-10 4.478-10 10v10h-10c-5.523 0-10 4.478-10 10s4.477 10 10 10z"/><path d="m476.082 0c-19.575 0-35.5 15.925-35.5 35.5 0 6.42 1.722 12.441 4.714 17.643l-32.666 32.666c-6.979-4.25-15.169-6.7-23.921-6.7-25.435 0-46.128 20.693-46.128 46.128 0 8.752 2.45 16.942 6.7 23.921l-31.413 31.413c-11.76-8.487-26.179-13.507-41.756-13.507-39.442 0-71.531 32.089-71.531 71.531 0 15.578 5.02 29.997 13.507 41.756l-36.522 36.523c-17.821-14.821-40.71-23.748-65.646-23.748-14.389 0-28.094 2.976-40.54 8.337-11.516-7.444-21.973-13.025-31.142-16.614-17.153-6.707-29.758-6.199-37.462 1.506-11.778 11.777-6.734 34.77 14.962 68.374-5.545 12.623-8.631 26.562-8.631 41.21 0 56.691 46.122 102.813 102.813 102.813 14.535 0 28.371-3.038 40.917-8.502 22.361 14.597 40.092 21.918 53.026 21.917 6.869 0 12.387-2.065 16.524-6.202 7.704-7.704 8.211-20.309 1.506-37.462-3.658-9.357-9.501-20.199-17.386-32.278 5.292-12.378 8.226-25.996 8.226-40.287 0-24.568-8.666-47.147-23.096-64.851l36.297-36.297c12.174 9.591 27.513 15.336 44.178 15.336 39.442 0 71.531-32.089 71.531-71.531 0-16.665-5.744-32.004-15.336-44.178l30.818-30.818c7.326 4.902 16.125 7.767 25.583 7.767 25.435 0 46.128-20.693 46.128-46.128 0-9.458-2.865-18.257-7.767-25.583l32.659-32.659c4.9 2.551 10.459 4.004 16.354 4.004 19.575 0 35.5-15.925 35.5-35.5s-15.926-35.5-35.5-35.5zm-455.162 300.517c.509-.21 4.533-1.539 16.033 2.956 5.486 2.148 11.788 5.295 18.62 9.281-8.58 6.242-16.162 13.775-22.456 22.315-13.196-22.618-13.19-32.742-12.197-34.552zm188.346 175.266c4.5 11.512 3.169 15.533 2.958 16.038-1.847 1.017-12.292.995-35.711-12.877 8.739-6.396 16.434-14.135 22.779-22.914 4.348 7.331 7.734 14.022 9.974 19.753zm-50.967-8.732c-9.405-6.653-19.212-14.316-29.234-22.861-4.202-3.583-10.513-3.08-14.098 1.121-3.583 4.202-3.082 10.514 1.121 14.098 7.008 5.976 13.927 11.538 20.707 16.673-6.672 1.739-13.666 2.669-20.875 2.669-45.663 0-82.813-37.15-82.813-82.813 0-7.281.953-14.343 2.727-21.075 6.02 8.006 12.656 16.21 19.855 24.532 1.978 2.286 4.764 3.458 7.567 3.458 2.318 0 4.647-.802 6.538-2.437 4.177-3.613 4.634-9.929 1.021-14.105-9.794-11.323-18.483-22.381-25.892-32.95 14.499-24.086 40.895-40.236 70.998-40.236 45.664 0 82.813 37.149 82.813 82.813 0 30.185-16.24 56.639-40.435 71.113zm117.814-176.926c-28.415 0-51.531-23.117-51.531-51.531s23.117-51.531 51.531-51.531 51.531 23.117 51.531 51.531-23.117 51.531-51.531 51.531zm112.597-138.761c-14.407 0-26.128-11.721-26.128-26.128s11.721-26.128 26.128-26.128 26.128 11.721 26.128 26.128-11.721 26.128-26.128 26.128zm87.372-100.364c-8.547 0-15.5-6.953-15.5-15.5s6.953-15.5 15.5-15.5 15.5 6.953 15.5 15.5-6.954 15.5-15.5 15.5z"/><circle cx="89.335" cy="427" r="10.004"/></g></g></svg>