<svg id="Icons" height="512" viewBox="0 0 60 60" width="512" xmlns="http://www.w3.org/2000/svg"><path d="m54.49 59.382a.5.5 0 0 1 -.326-.879l.122-.1-1.556.9a.5.5 0 0 1 -.58-.809l2.678-2.352-4.072 2.35a.5.5 0 0 1 -.546-.836l.873-.639-1.236.713a.5.5 0 0 1 -.573-.815l4-3.374-4.721 2.719a.5.5 0 0 1 -.561-.824l3.121-2.474-3.613 2.088a.5.5 0 0 1 -.57-.817l3.607-3-4.237 2.441a.5.5 0 0 1 -.541-.839l.2-.147-.348.2a.5.5 0 0 1 -.56-.825l2.641-2.094-3.077 1.776a.5.5 0 0 1 -.557-.827l2.194-1.711-2.562 1.479a.5.5 0 0 1 -.555-.829l1.824-1.406-2.14 1.235a.5.5 0 0 1 -.558-.827l1.978-1.549-2.323 1.34a.5.5 0 0 1 -.555-.829l1.486-1.143-1.761 1.022a.5.5 0 0 1 -.584-.8l3.236-2.911-3.919 2.263a.5.5 0 0 1 -.56-.824l1.687-1.339-2 1.157a.5.5 0 0 1 -.567-.818l2.08-1.714-2.475 1.429a.5.5 0 0 1 -.575-.813l2.334-1.994-1.186.685a.5.5 0 0 1 -.678-.691l.892-1.479a.5.5 0 0 1 -.089-.906l1.087-.628a.5.5 0 0 1 .677.69l-.71 1.179 4.214-2.433a.5.5 0 0 1 .576.813l-2.337 1.984 2.994-1.729a.5.5 0 0 1 .567.819l-2.082 1.714 2.66-1.535a.5.5 0 0 1 .561.825l-1.689 1.337 2.171-1.252a.5.5 0 0 1 .584.8l-3.238 2.912 4.163-2.4a.5.5 0 0 1 .555.829l-1.485 1.145 1.923-1.11a.5.5 0 0 1 .559.826l-1.977 1.549 2.493-1.439a.5.5 0 0 1 .556.828l-1.826 1.408 2.308-1.332a.5.5 0 0 1 .558.827l-2.192 1.709 2.734-1.581a.5.5 0 0 1 .56.824l-2.64 2.094 3.266-1.886a.5.5 0 0 1 .541.839l-.207.149.482-.278a.5.5 0 0 1 .57.817l-3.605 3 4.463-2.577a.5.5 0 0 1 .56.825l-3.124 2.475 3.7-2.136a.5.5 0 0 1 .573.814l-4 3.375 4.275-2.461a.5.5 0 0 1 .546.836l-.868.637.526-.3a.5.5 0 0 1 .58.809l-2.679 2.344 1.818-1.049a.5.5 0 0 1 .576.812l-1.08.928a.5.5 0 0 1 .017.875l-3.2 1.844a.493.493 0 0 1 -.246.072z" fill="#3c3cbf"/><path d="m23.628 45.454a.5.5 0 0 1 -.271-.921l1.68-1.08-3.279 1.893a.5.5 0 0 1 -.522-.853l5.269-3.4-6.927 4a.5.5 0 0 1 -.524-.851l10.162-6.657-12.053 6.954a.5.5 0 0 1 -.517-.855l5.642-3.552-6.729 3.885a.5.5 0 0 1 -.521-.854l11.762-7.549-13.142 7.586a.5.5 0 0 1 -.521-.852l15.143-9.81-16.589 9.577a.5.5 0 0 1 -.52-.853l15.75-10.126-16.957 9.79a.5.5 0 0 1 -.515-.857l9.829-6.129-10.47 6.045a.5.5 0 0 1 -.511-.859l2.236-1.368-2.548 1.471a.5.5 0 0 1 -.515-.857l12.588-7.884-13.173 7.605a.5.5 0 0 1 -.519-.855l17.261-11-17.954 10.368a.5.5 0 0 1 -.511-.859l2.993-1.828-3.117 1.8a.5.5 0 0 1 -.511-.86l3.929-2.4-4.021 2.317a.5.5 0 0 1 -.511-.859l2.953-1.8-2.977 1.718a.5.5 0 0 1 -.514-.857l10.235-6.347-10.34 5.969a.5.5 0 0 1 -.515-.857l14.093-8.85-14.2 8.2a.5.5 0 0 1 -.513-.859l7.084-4.366-6.975 4.024a.5.5 0 0 1 -.515-.857l11.7-7.313-11.586 6.692a.5.5 0 0 1 -.515-.858l9.907-6.17-9.679 5.588a.5.5 0 0 1 -.513-.858l8-4.97-7.664 4.427a.5.5 0 0 1 -.511-.86l.348-.212a.5.5 0 0 1 -.433-.9l6.04-3.749-5.544 3.2a.5.5 0 0 1 -.519-.852l11.349-7.22-10.72 6.19a.5.5 0 0 1 -.512-.858l.649-.4a.5.5 0 0 1 -.494-.867l12.893-8.5-11.8 6.811a.5.5 0 0 1 -.521-.853l6.963-4.484-5.755 3.323a.5.5 0 0 1 -.52-.854l4.321-2.788-2.914 1.685a.5.5 0 0 1 -.527-.848l5-3.342-2.99 1.727a.5.5 0 0 1 -.559-.825l4.766-3.766a.5.5 0 0 1 -.376-.917l5.734-3.314a.5.5 0 0 1 .559.825l-4.667 3.692 10.283-5.937a.5.5 0 0 1 .527.849l-5 3.338 7.35-4.242a.5.5 0 0 1 .52.854l-4.321 2.786 5.937-3.429a.5.5 0 0 1 .521.854l-6.967 4.483 8.532-4.926a.5.5 0 0 1 .526.851l-12.89 8.502 14.856-8.579a.5.5 0 0 1 .513.858l-.626.387 1.309-.756a.5.5 0 0 1 .518.855l-11.349 7.222 12.522-7.23a.5.5 0 0 1 .514.858l-6.044 3.752 6.737-3.89a.5.5 0 0 1 .511.86l-.063.038.473-.273a.5.5 0 0 1 .514.858l-8 4.967 8.607-4.969a.5.5 0 0 1 .515.858l-9.914 6.174 10.5-6.062a.5.5 0 0 1 .514.857l-11.694 7.307 12.26-7.078a.5.5 0 0 1 .513.859l-7.1 4.379 7.427-4.289a.5.5 0 0 1 .515.857l-14.09 8.845 14.566-8.41a.5.5 0 0 1 .514.858l-10.24 6.349 10.487-6.054a.5.5 0 0 1 .51.86l-2.93 1.79 2.968-1.715a.5.5 0 0 1 .511.86l-3.944 2.413 3.95-2.28a.5.5 0 0 1 .511.859l-2.985 1.824 2.928-1.691a.5.5 0 0 1 .519.855l-17.266 11 17.423-10.058a.5.5 0 0 1 .516.857l-12.6 7.89 12.518-7.227a.5.5 0 0 1 .511.86l-2.212 1.353 1.944-1.122a.5.5 0 0 1 .514.857l-9.837 6.134 9.557-5.518a.5.5 0 0 1 .521.854l-15.75 10.126 15.39-8.889a.5.5 0 0 1 .522.852l-15.137 9.8 14.568-8.412a.5.5 0 0 1 .521.854l-11.76 7.551 11-6.35a.5.5 0 0 1 .517.857l-5.651 3.564 4.8-2.769a.5.5 0 0 1 .525.852l-10.172 6.659 8.921-5.15a.5.5 0 0 1 .521.854l-5.261 3.4 3.9-2.25a.5.5 0 0 1 .52.854l-1.674 1.073 1.784-1.03a.5.5 0 0 1 .542.838l-6.847 4.934 7.52-4.342a.5.5 0 0 1 .555.829l-5.014 3.85 3.557-2.053a.5.5 0 0 1 .556.828l-4.241 3.276a.494.494 0 0 1 .236.21.5.5 0 0 1 -.183.682l-4.815 2.78a.5.5 0 0 1 -.556-.828l3.058-2.362-3.682 2.127a.5.5 0 0 1 -.555-.829l5.006-3.849-9.533 5.5a.5.5 0 0 1 -.542-.838l6.849-4.935-11.177 6.46a.494.494 0 0 1 -.25.067z" fill="#c5d3ea"/><path d="m24.505 41.4a.5.5 0 0 1 -.288-.908l5.88-4.149-8.606 4.968a.5.5 0 0 1 -.535-.844l9.188-6.37-11.576 6.682a.5.5 0 0 1 -.525-.849l8.651-5.718-10.182 5.879a.5.5 0 0 1 -.523-.852l8.845-5.751-10.041 5.8a.5.5 0 0 1 -.515-.856l2.037-1.273-2.606 1.5a.5.5 0 0 1 -.519-.854l8.276-5.278-9.058 5.229a.5.5 0 0 1 -.517-.856l7.378-4.664-7.979 4.608a.5.5 0 0 1 -.519-.855l9.929-6.324-10.53 6.076a.5.5 0 0 1 -.513-.858l.383-.236-.558.322a.5.5 0 0 1 -.516-.856l7.789-4.9-8.107 4.68a.5.5 0 0 1 -.522-.853l13.959-9.056-14.447 8.342a.5.5 0 0 1 -.517-.855l8.7-5.485-8.827 5.094a.5.5 0 0 1 -.52-.853l12.429-8-12.576 7.266a.5.5 0 0 1 -.513-.858l1.513-.935-1.327.768a.5.5 0 0 1 -.517-.857l7.132-4.489-6.947 4.009a.5.5 0 0 1 -.521-.853l11.04-7.116-10.797 6.238a.5.5 0 0 1 -.52-.854l8.512-5.446-8.092 4.672a.5.5 0 0 1 -.518-.855l5.317-3.367-4.773 2.755a.5.5 0 0 1 -.529-.847l11.759-7.935-10.894 6.29a.5.5 0 0 1 -.524-.852l6.851-4.5-5.792 3.339a.5.5 0 0 1 -.524-.851l4.167-2.737-2.881 1.663a.5.5 0 0 1 -.548-.834l6.756-5-4.089 2.359a.5.5 0 0 1 -.546-.836l2.792-2.053a.479.479 0 0 1 -.136-.153.5.5 0 0 1 .182-.683l5.1-2.944a.5.5 0 0 1 .546.836l-.608.447 3.89-2.246a.5.5 0 0 1 .548.835l-6.754 5 10.267-5.928a.5.5 0 0 1 .524.851l-4.173 2.741 5.7-3.291a.5.5 0 0 1 .525.851l-6.851 4.5 8.34-4.815a.5.5 0 0 1 .529.847l-11.759 7.941 13.559-7.829a.5.5 0 0 1 .518.855l-5.306 3.36 6.071-3.5a.5.5 0 0 1 .52.854l-8.515 5.444 9.348-5.4a.5.5 0 0 1 .52.853l-11.043 7.116 11.891-6.865a.5.5 0 0 1 .517.856l-7.118 4.481 7.581-4.377a.5.5 0 0 1 .512.858l-1.537.951 1.747-1.009a.5.5 0 0 1 .521.853l-12.425 7.992 12.955-7.48a.5.5 0 0 1 .517.855l-8.7 5.489 8.948-5.166a.5.5 0 0 1 .522.852l-13.963 9.057 14.289-8.25a.5.5 0 0 1 .517.856l-7.784 4.9 7.788-4.5a.5.5 0 0 1 .512.859l-.367.226.181-.105a.5.5 0 0 1 .519.855l-9.93 6.328 9.793-5.653a.5.5 0 0 1 .517.855l-7.375 4.663 7.1-4.1a.5.5 0 0 1 .519.855l-8.277 5.279 7.874-4.546a.5.5 0 0 1 .515.857l-2.022 1.263 1.508-.871a.5.5 0 0 1 .523.852l-8.854 5.758 8.171-4.718a.5.5 0 0 1 .525.851l-8.653 5.719 7.7-4.446a.5.5 0 0 1 .535.844l-9.188 6.369 7.657-4.421a.5.5 0 0 1 .538.842l-5.877 4.149 3.728-2.153a.5.5 0 0 1 .556.828l-3.548 2.755a.5.5 0 0 1 .126.917l-5.1 2.945a.5.5 0 0 1 -.557-.828l2.727-2.12-6.955 4.015a.491.491 0 0 1 -.25.071z" fill="#6671ff"/><g fill="#f2c444"><path d="m12.775 38.216a.5.5 0 0 1 -.5-.557l.082-.712-.4.232a.5.5 0 0 1 -.668-.706l.111-.173-.25.143a.5.5 0 0 1 -.626-.761l.082-.094-.243.139a.492.492 0 0 1 -.626-.1.5.5 0 0 1 -.019-.635l1.309-1.692-1.747 1.005a.5.5 0 0 1 -.58-.805l.395-.35a.5.5 0 0 1 -.421-.844l.9-.927-.293.169a.5.5 0 0 1 -.681-.685l.389-.668a.5.5 0 0 1 -.155-.924l1.166-.671a.5.5 0 0 1 .682.685l-.267.456 1.784-1.03a.5.5 0 0 1 .609.782l-.9.926.817-.472a.5.5 0 0 1 .582.807l-.395.351a.5.5 0 0 1 .458.8l-1.306 1.7.661-.382a.5.5 0 0 1 .626.762l-.3.346a.507.507 0 0 1 .29.152.5.5 0 0 1 .055.617l-.288.441a.506.506 0 0 1 .367.54l-.136 1.184a.459.459 0 0 1 .071.1.5.5 0 0 1 -.182.682l-.2.112a.5.5 0 0 1 -.253.057z"/><path d="m20.646 41.28a.5.5 0 0 1 -.489-.6l.127-.609-1.256.725a.5.5 0 0 1 -.652-.73l.8-1.088-1.9 1.094a.5.5 0 0 1 -.583-.8l.435-.389a.5.5 0 0 1 -.475-.822l1.882-2.108-1.259.727a.5.5 0 0 1 -.593-.8l.865-.818-.272.156a.5.5 0 0 1 -.628-.76l2.011-2.328-1.383.8a.5.5 0 0 1 -.6-.786l1.246-1.245-.643.371a.5.5 0 0 1 -.61-.779l1.055-1.1-.445.257a.5.5 0 0 1 -.686-.677l.428-.769a.5.5 0 0 1 -.189-.929l1.168-.673a.5.5 0 0 1 .687.676l-.333.6 1.925-1.113a.5.5 0 0 1 .611.78l-1.055 1.1.891-.515a.5.5 0 0 1 .6.787l-1.246 1.244.648-.374a.5.5 0 0 1 .627.76l-2.01 2.329 1.388-.8a.5.5 0 0 1 .594.8l-.864.819.275-.16a.5.5 0 0 1 .623.766l-1.882 2.101 1.264-.73a.5.5 0 0 1 .583.806l-.433.386a.513.513 0 0 1 .477.157.5.5 0 0 1 .029.63l-.8 1.089.155-.088a.5.5 0 0 1 .739.535l-.2.978a.484.484 0 0 1 .151.163.5.5 0 0 1 -.182.683l-.36.208a.5.5 0 0 1 -.256.063z"/><path d="m26.949 40.931a.5.5 0 0 1 -.422-.769l.94-1.474-2.187 1.262a.5.5 0 0 1 -.594-.794l.932-.891-.338.2a.5.5 0 0 1 -.593-.8l.807-.758-.214.123a.5.5 0 0 1 -.6-.792l1.031-1-.434.25a.5.5 0 0 1 -.582-.8l.411-.367a.5.5 0 0 1 -.446-.834l1.623-1.753-1.006.581a.5.5 0 0 1 -.71-.629l.639-1.5a.5.5 0 0 1 -.376-.917l1.17-.669a.5.5 0 0 1 .71.629l-.627 1.468 2.567-1.483a.5.5 0 0 1 .618.773l-1.628 1.751 1.084-.625a.5.5 0 0 1 .582.806l-.408.363a.5.5 0 0 1 .426.854l-1.034 1 .44-.254a.5.5 0 0 1 .593.8l-.806.758.216-.125a.5.5 0 0 1 .595.793l-.928.892.342-.2a.5.5 0 0 1 .672.7l-.938 1.473.27-.157a.5.5 0 0 1 .5.866l-2.046 1.181a.49.49 0 0 1 -.251.068z"/><path d="m33.03 37.856a.5.5 0 0 1 -.367-.838l1.715-1.857-1.1.633a.5.5 0 0 1 -.613-.776l1.593-1.685-.98.565a.5.5 0 0 1 -.624-.764l1.89-2.125-1.266.73a.5.5 0 0 1 -.612-.777l1.551-1.629-.939.542a.5.5 0 0 1 -.613-.776l1.595-1.689-.982.567a.5.5 0 0 1 -.611-.779l1.536-1.611-.925.535a.5.5 0 0 1 -.614-.776l1.036-1.106-.424.245a.5.5 0 0 1 -.678-.691l.365-.606a.5.5 0 0 1 -.134-.919l1.171-.669a.5.5 0 0 1 .679.691l-.219.363 1.68-.97a.5.5 0 0 1 .614.776l-1.038 1.106 1.009-.583a.5.5 0 0 1 .611.778l-1.536 1.608.926-.535a.5.5 0 0 1 .613.776l-1.6 1.691.985-.569a.5.5 0 0 1 .612.778l-1.552 1.63.942-.544a.5.5 0 0 1 .624.765l-1.89 2.125 1.268-.732a.5.5 0 0 1 .613.777l-1.593 1.684.981-.566a.5.5 0 0 1 .617.772l-2.414 2.614a.492.492 0 0 1 .13.148.5.5 0 0 1 -.183.682l-1.6.924a.489.489 0 0 1 -.249.067z"/></g><path d="m32.383 43.215c1.324 1.512 3.114 2.677 5.069 1.248 5.828 4.644 10.3 18.162 19.319 13.981 9.757-7.793-7.854-15.352-12.31-20.943 1.762-1.485.869-3.324-.742-4.612-.52-.612.6-1.727.7-2.546 9.346-27.823-31.419-41.843-42.559-15.425-7.876 18.301 12.97 37.03 30.523 28.297zm23.93 6.34c5.312 4.219-1.349 12.667-6.25 7.284-3.9-4.392-7.688-8.876-11.565-13.284 1.655-1.781 3.347-3.4 5.047-5.118 4.255 3.703 8.539 7.382 12.768 11.118zm-54.213-30.744c7.634-31.932 52.889-15.239 39.881 14.114 5.441 4.006-2.669 7.431-5.031 10.874-1.811 1.974-2.856-2.271-4.569-1.238-15.265 7.886-33.948-7.188-30.281-23.75z" fill="#262626"/><path d="m8.276 34.5a17.754 17.754 0 0 0 8.038 5.676 16.844 16.844 0 0 0 4.006.936c1.056.422 2.769.037 4.017.076.253.393 1.124.262 1.342-.159a19.576 19.576 0 0 0 2.787-.64c.386.259 1.2.043 1.256-.432 16.643-5.63 15.216-31.265-2.129-34.8-.339-.081-1.6.469-1.187.568 11.519 2.386 17.634 16.685 11.318 26.6-.513-3.3 1.094-7.831-.738-10.521a8.1 8.1 0 0 0 -3.789.189c-2.266 3.107-.292 11.737-.921 16.045a15.961 15.961 0 0 1 -2.538 1.344c-.747-3.2 2.383-11.61-2.9-10.917-4.93-.255-1.719 8.958-2.569 12.168a17.238 17.238 0 0 1 -2.54-.057c-.708-2.941 1.726-13.657-1.549-14-1.185-.039-3.1-.279-3.754.977-.429 3.788 0 7.748-.149 11.59a17.528 17.528 0 0 1 -2.55-1.405c-.057-2.747.111-5.539-.058-8.263-.3-.825-1.181-.775-1.894-.775-2.468-.331-3.981.662-3.5 3.282-6.96-10.772 1.169-26.796 14.257-26.682.313 0 1.638-.607.937-.6-15.09-.615-25.146 18.036-15.193 29.8zm27.213-12.213c1.678.9.416 3.819.787 5.458-.134 3.432.994 7.239-2.552 9.245.1-4.863-.2-9.954.112-14.706a9.31 9.31 0 0 1 1.653.003zm-9.755 8.4c-.305-1.343.761-1.249 1.752-1.153 1.853.439.295 8.26.78 10.385a16.52 16.52 0 0 1 -2.532.565zm-8.008-2.387c.07-.343-.194-.992.362-.872.757.117 1.983-.4 2.186.664q0 6.138 0 12.287a17.547 17.547 0 0 1 -2.548-.664zm-7.926 1.188a1.17 1.17 0 0 1 .132-.183c4.085-.777 1.792 4.933 2.348 7.359-2.711-1.627-2.893-4.331-2.48-7.176z" fill="#262626"/><path d="m22.343 19.05-3.181 3.181c-4.666-5.516-4.451-3.345-8.819.819 1.462.816 3.236-2.412 4.495-3.281 4.123 4.462 3.865 4.448 8 0 1.5.908 2.976 4.6 4.877 3.106.521-1.42 8.35-10.765 4.57-8.75l-5.292 7.937c-1.458-.895-2.761-4.279-4.65-3.012z" fill="#262626"/></svg>