<svg id="&#x421;&#x43B;&#x43E;&#x439;_1" enable-background="new 0 0 512 512" height="512" viewBox="0 0 512 512" width="512" xmlns="http://www.w3.org/2000/svg"><g id="googleplus"><g><path d="m512 256.008c0 141.387-114.615 255.988-256.004 255.98-141.385.008-255.996-114.593-255.996-255.98 0-141.389 114.611-255.996 255.996-255.996 141.389 0 256.004 114.607 256.004 255.996z" fill="#fa4631"/><path d="m511.922 253.383-125.475-125.475-20.219 20.217 21.258 21.258-15.375 15.383-60.865-60.857-112.702 6.553-41.046 60.227.445 44.047 64.827 64.818-67.288 24.156-17.859 71.521 116.709 116.719c.555.008 1.109.039 1.664.039 141.389.007 256.004-114.594 256.004-255.981 0-.875-.07-1.75-.078-2.625z" opacity=".15"/></g><g id="Google_plus_2_" fill="#f4f6f9"><path d="m386.439 168.016.008-40.108h-20.117l.008 40.108h-40.226v20.07h40.226l-.008 40.117h20.117l-.008-40.117h40.235v-20.07z"/><path d="m275.996 292.717c-28.148-20.484-35.031-32.055-8.156-52.795 15.141-11.688 25.773-27.242 25.773-46.469 0-20.945-8.594-39.945-24.742-49.164h22.883l19.492-20.381s-73.453 0-87.195 0c-54.42 0-81.123 32.529-81.123 68.303 0 36.578 25.164 65.381 74.296 65.381-7.617 15.328-4.555 29.5 7.905 39.625-83.904 0-101.873 36.727-101.873 65 .008 36.67 42.25 58.443 92.913 58.443 69.257 0 96.796-36.609 96.796-66.662 0-24.523-9.188-40.539-36.969-61.281zm-100.271-101.037c-4.055-30.773 11.703-54.328 35.202-53.648 23.476.703 43.593 25.969 47.647 56.727 4.055 30.797-9.469 50.594-32.969 49.883-23.483-.681-45.826-22.181-49.88-52.962zm40.694 212.683c-35.015 0-60.296-22.092-60.296-48.646-.016-26.016 29.656-48.469 64.671-48.07 38.843 0 62.007 24.109 61.999 49.422 0 26.554-21.625 47.294-66.374 47.294z"/></g></g></svg>