<svg id="Capa_1" enable-background="new 0 0 512 512" height="512" viewBox="0 0 512 512" width="512" xmlns="http://www.w3.org/2000/svg"><g><path d="m512 256.001c-5.747 336.512-506.302 336.459-512-.011 5.747-336.501 506.301-336.448 512 .011z" fill="#ffd064"/><g><path d="m201.488 170.346-54.564-104.575c-15.53-29.764-58.124-29.764-73.654 0l-54.564 104.575c-20.828 39.919-13.338 88.737 18.5 120.576 40.256 40.256 105.525 40.256 145.781 0 31.839-31.839 39.329-80.657 18.501-120.576z" fill="#90d8f9"/><path d="m120.693 320.559c-3.52.374-7.063.55-10.595.55-26.382 0-52.765-10.057-72.891-30.183-31.844-31.844-39.328-80.656-18.5-120.58l54.565-104.571c9.671-18.524 29.821-25.517 47.409-20.98-5.847 2.748-11.168 9.753-14.384 20.98l-29.902 104.571c-11.414 39.924-7.309 88.737 10.139 120.58 9.554 17.436 21.681 27.306 34.159 29.633z" fill="#75cef9"/><path d="m162.04 144.541v114c0 6.9-5.6 12.5-12.5 12.5s-12.5-5.6-12.5-12.5v-46.45h-53.89v46.45c0 4.41-2.29 8.3-5.75 10.52-1.94 1.25-4.26 1.98-6.75 1.98-6.9 0-12.5-5.6-12.5-12.5v-114c0-6.9 5.6-12.5 12.5-12.5 6.91 0 12.5 5.6 12.5 12.5v42.55h53.89v-42.55c0-6.9 5.6-12.5 12.5-12.5s12.5 5.6 12.5 12.5z" fill="#5a97ca"/><path d="m76.39 170.341c-9.03 31.62-8.34 68.8 1.01 98.72-1.94 1.25-4.26 1.98-6.75 1.98-6.9 0-12.5-5.6-12.5-12.5v-114c0-6.9 5.6-12.5 12.5-12.5 6.91 0 12.5 5.6 12.5 12.5v2.17z" fill="#4d85ae"/></g><g><path d="m493.294 211.925-54.564-104.575c-15.53-29.764-58.124-29.764-73.654 0l-54.564 104.575c-20.828 39.919-13.338 88.737 18.5 120.576 40.256 40.256 105.525 40.256 145.781 0 31.839-31.839 39.329-80.658 18.501-120.576z" fill="#90d8f9"/><path d="m412.5 362.141c-3.52.37-7.06.55-10.6.55-26.38 0-52.76-10.06-72.89-30.19-31.84-31.84-39.33-80.65-18.5-120.58l54.57-104.57c9.67-18.52 29.82-25.51 47.41-20.98-5.85 2.75-11.17 9.76-14.39 20.98l-23.16 81-6.74 23.57c-1.53 5.36-2.78 10.87-3.75 16.49-2.52 14.41-3.22 29.47-2.21 44.11 1.01 14.72 3.77 29.02 8.17 41.82 2.22 6.48 4.87 12.58 7.93 18.16 9.55 17.44 21.68 27.31 34.16 29.64z" fill="#75cef9"/><path d="m401.902 182.897c-38.32 0-69.496 31.176-69.496 69.496 0 38.321 31.176 69.497 69.496 69.497s69.497-31.176 69.497-69.497c0-38.32-31.177-69.496-69.497-69.496zm0 113.993c-24.535 0-44.496-19.961-44.496-44.497s19.961-44.496 44.496-44.496c24.536 0 44.497 19.961 44.497 44.496s-19.961 44.497-44.497 44.497z" fill="#5a97ca"/><path d="m357.41 252.391c0-8.83 2.58-17.06 7.04-23.98.97-5.62 2.22-11.13 3.75-16.49l6.74-23.57c-24.97 10.54-42.53 35.28-42.53 64.04 0 26.99 15.46 50.44 38 61.95-4.4-12.8-7.16-27.1-8.17-41.82-3.09-6.05-4.83-12.89-4.83-20.13z" fill="#4d85ae"/></g><g><path d="m327.212 309.363-50.176-96.166c-14.281-27.371-53.45-27.371-67.731 0l-50.176 96.166c-19.154 36.709-12.266 81.602 17.012 110.88 37.019 37.019 97.04 37.019 134.059 0 29.278-29.278 36.166-74.171 17.012-110.88z" fill="#90d8f9"/><path d="m252.914 447.498c-3.237.344-6.495.505-9.743.505-24.261 0-48.522-9.248-67.03-27.756-29.283-29.283-36.166-74.17-17.013-110.884l50.178-96.162c8.894-17.034 27.423-23.465 43.597-19.293-5.377 2.527-10.27 8.969-13.227 19.293l-27.498 96.162c-10.496 36.714-6.721 81.601 9.324 110.884 8.786 16.034 19.937 25.11 31.412 27.251z" fill="#75cef9"/></g><path d="m267.017 371.884c-.053 0-.106 0-.16.001-5.509.069-11.272.122-16.629.153 3.917-5.333 8.799-12.107 14.81-20.694 5.338-7.628 8.834-14.898 10.39-21.608.095-.408.169-.821.223-1.237l.394-3.076c.066-.526.101-1.056.101-1.586 0-18.113-14.736-32.848-32.849-32.848-15.661 0-29.217 11.143-32.232 26.495-1.331 6.774 3.083 13.344 9.857 14.675 6.768 1.329 13.344-3.083 14.674-9.857.719-3.658 3.957-6.313 7.701-6.313 4.123 0 7.512 3.194 7.826 7.237l-.178 1.391c-.669 2.519-2.33 6.596-6.387 12.394-12.556 17.939-20.044 27.743-24.066 33.01-5.204 6.813-8.344 10.926-6.28 17.637 1.22 3.966 4.333 7.129 8.328 8.46 1.662.554 2.916.973 18.7.973 6.147 0 14.499-.063 25.934-.207 6.903-.087 12.429-5.753 12.342-12.656-.089-6.851-5.668-12.344-12.499-12.344z" fill="#5a97ca"/></g></svg>