<svg id="&#x421;&#x43B;&#x43E;&#x439;_1" enable-background="new 0 0 512 512" height="512" viewBox="0 0 512 512" width="512" xmlns="http://www.w3.org/2000/svg"><g id="linkedin_1_"><g><path d="m511.994 256.008c0 141.379-114.607 255.98-255.996 255.98-141.385 0-255.992-114.601-255.992-255.988 0-141.389 114.607-255.988 255.992-255.988 141.389 0 255.996 114.599 255.996 255.996z" fill="#007cb8"/><path d="m280.373 211.672-6.984 6.984-84.365-84.367-45.727 45.719 45.328 45.32-50.602 163.41 123.107 123.117c109.311-2.156 201.794-72.766 236.332-170.771l-116.817-116.811-76.49 11.188z" opacity=".1"/></g><path id="Linkedin_1_" d="m197.569 155.898c0 18.047-14.515 32.664-32.421 32.664-17.891 0-32.406-14.617-32.406-32.656 0-18.023 14.516-32.646 32.406-32.646 17.907 0 32.421 14.623 32.421 32.638zm-4.742 55.844h-54.819l.016 176.996 54.804-.008v-176.988zm87.609 0h-52.563v176.988l52.563.008s0-65.654 0-92.904c.008-24.891 11.461-39.703 33.398-39.703 20.155 0 29.851 14.219 29.851 39.703s0 92.896 0 92.896h54.538s0-64.662 0-112.053c0-47.436-26.875-70.334-64.429-70.334s-53.358 29.25-53.358 29.25z" fill="#f4f6f9"/></g></svg>