<svg id="Icons" height="512" viewBox="0 0 60 60" width="512" xmlns="http://www.w3.org/2000/svg"><path d="m12.849 59.091a.5.5 0 0 1 -.32-.885l.622-.516-.743.429a.5.5 0 0 1 -.565-.82l.387-.316a.5.5 0 0 1 -.482-.839l2.576-2.522a.5.5 0 0 1 .214-.622l1.08-.622a.5.5 0 0 1 .6.79l-.937.916 1.787-1.031a.5.5 0 0 1 .566.82l-.308.25.453-.261a.5.5 0 0 1 .57.818l-.63.521.411-.236a.5.5 0 0 1 .5.865l-5.53 3.193a.493.493 0 0 1 -.251.068z" fill="#723b2e"/><path d="m45.236 59.308a.5.5 0 0 1 -.434-.747l1.028-1.812-1.93 1.116a.5.5 0 0 1 -.612-.778l.292-.305-.487.281a.5.5 0 0 1 -.615-.773l.4-.429-.631.364a.5.5 0 0 1 -.646-.738l.783-1.019a.5.5 0 0 1 -.47-.882l2.146-1.238a.5.5 0 0 1 .646.737l-.78 1.017 1.355-.783a.5.5 0 0 1 .616.774l-.4.428.624-.361a.5.5 0 0 1 .611.778l-.292.3.485-.279a.5.5 0 0 1 .684.68l-1.028 1.811 1.123-.647a.5.5 0 1 1 .5.865l-2.718 1.572a.49.49 0 0 1 -.25.068z" fill="#723b2e"/><path d="m15.483 22.475a.5.5 0 0 1 -.25-.933l10.487-6.054a.5.5 0 0 1 .566.821l-2.608 2.128 2.042-1.179a.5.5 0 0 1 .615.774l-1.707 1.826 1-.578a.5.5 0 0 1 .5.866l-3.909 2.254a.5.5 0 0 1 -.615-.774l1.707-1.826-4.508 2.6a.5.5 0 0 1 -.567-.82l2.611-2.129-5.114 2.951a.5.5 0 0 1 -.25.073z" fill="#6671ff"/><path d="m7.033 27.454a.5.5 0 0 1 -.269-.921l.851-.547-1.234.714a.5.5 0 0 1 -.527-.849l6.373-4.225-5.956 3.437a.5.5 0 0 1 -.526-.849l5.9-3.892-5.387 3.111a.5.5 0 0 1 -.525-.851l5.3-3.475-5.711 3.293a.5.5 0 0 1 -.522-.851l5.078-3.3-6.788 3.918a.5.5 0 0 1 -.519-.854l3.861-2.46-4.404 2.547a.5.5 0 0 1 -.521-.853l7.158-4.618-7.3 4.213a.5.5 0 0 1 -.518-.855l5.652-3.6-5.219 3.006a.5.5 0 0 1 -.527-.848l11.492-7.676-10.965 6.331a.5.5 0 0 1 -.516-.855l1.7-1.074-1.185.684a.5.5 0 0 1 -.519-.855l4.15-2.674-3.63 2.096a.5.5 0 0 1 -.533-.844l7.403-5.078-6.87 3.965a.5.5 0 0 1 -.542-.838l6.409-4.621-5.867 3.387a.5.5 0 0 1 -.531-.846l1.139-.775-.608.349a.5.5 0 0 1 -.567-.821l3.899-3.2-3.332 1.92a.5.5 0 0 1 -.591-.8l2.111-1.966-1.52.876a.5.5 0 0 1 -.628-.759l.9-1.039a.5.5 0 0 1 -.188-.932l2.05-1.18a.5.5 0 0 1 .628.76l-.693.8 2.745-1.58a.5.5 0 0 1 .591.8l-2.107 1.961 4.787-2.761a.5.5 0 0 1 .568.818l-3.9 3.208 6.974-4.026a.5.5 0 0 1 .531.845l-1.138.774 2.809-1.619a.5.5 0 0 1 .542.838l-6.41 4.62 9.459-5.458a.5.5 0 0 1 .533.844l-7.4 5.075 10.254-5.919a.5.5 0 0 1 .52.852l-4.154 2.675 5.547-3.2a.5.5 0 0 1 .516.855l-1.716 1.08 2.108-1.216a.5.5 0 0 1 .527.849l-11.49 7.674 11.666-6.734a.5.5 0 0 1 .518.854l-5.642 3.6 5.133-2.966a.5.5 0 0 1 .521.852l-7.155 4.617 6.634-3.83a.5.5 0 0 1 .518.854l-3.865 2.463 3.347-1.932a.5.5 0 0 1 .522.852l-5.09 3.31 4.568-2.636a.5.5 0 0 1 .524.85l-5.286 3.468 4.762-2.749a.5.5 0 0 1 .525.85l-5.895 3.888 5.37-3.1a.5.5 0 0 1 .526.849l-6.378 4.229 5.852-3.378a.5.5 0 0 1 .519.853l-14.853 9.524a.5.5 0 0 1 -.249.4l-3.854 2.23a.494.494 0 0 1 -.25.067z" fill="#6671ff"/><path d="m54.483 22.492a.5.5 0 0 1 -.25-.932l4.456-2.573a.5.5 0 1 1 .5.866l-4.456 2.572a.494.494 0 0 1 -.25.067z" fill="#ea524e"/><path d="m52.049 27.2a.5.5 0 0 1 -.421-.769l.814-1.273-1.658.957a.5.5 0 0 1 -.568-.818l3.784-3.119-4.883 2.822a.5.5 0 0 1 -.549-.834l3.214-2.393-4.016 2.32a.5.5 0 0 1 -.54-.84l2.935-2.092-3.636 2.1a.5.5 0 0 1 -.538-.841l3.736-2.638-4.542 2.618a.5.5 0 0 1 -.545-.836l6.53-4.771-9.714 5.607a.5.5 0 0 1 -.52-.853l.165-.106-1.662.959a.5.5 0 0 1 -.528-.848l6.913-4.611-9.3 5.367a.5.5 0 0 1 -.52-.854l5.011-3.22-5.8 3.351a.5.5 0 0 1 -.522-.853l6.969-4.5-7.21 4.168a.5.5 0 0 1 -.523-.851l9.517-6.215-9.162 5.29a.5.5 0 0 1 -.522-.852l8.823-5.748-8.3 4.792a.5.5 0 0 1 -.516-.855l2.287-1.444-1.772 1.021a.5.5 0 0 1 -.533-.845l10.031-6.9-9.5 5.483a.5.5 0 0 1 -.533-.844l6.775-4.661-6.24 3.6a.5.5 0 0 1 -.549-.833l6.469-4.823-5.92 3.415a.5.5 0 0 1 -.558-.826l4.239-3.33-3.681 2.126a.5.5 0 0 1 -.582-.807l2.667-2.367-2.085 1.2a.5.5 0 0 1 -.655-.726l1.263-1.747-.024.014a.5.5 0 0 1 -.5-.865l2.05-1.182a.5.5 0 0 1 .621.1.5.5 0 0 1 .034.628l-1.263 1.745 4.323-2.493a.5.5 0 0 1 .582.806l-2.666 2.365 5.496-3.171a.5.5 0 0 1 .559.826l-4.241 3.329 7.201-4.155a.5.5 0 0 1 .548.833l-6.464 4.822 9.799-5.655a.5.5 0 0 1 .534.844l-6.777 4.656 9.542-5.5a.5.5 0 0 1 .533.844l-10.028 6.9 12.6-7.274a.5.5 0 0 1 .516.856l-2.297 1.446 2.612-1.507a.5.5 0 0 1 .522.852l-8.831 5.753 8.838-5.1a.5.5 0 0 1 .523.852l-9.51 6.211 9-5.2a.5.5 0 0 1 .521.853l-6.97 4.5 6.449-3.726a.5.5 0 0 1 .52.854l-5 3.215 4.48-2.588a.5.5 0 0 1 .527.848l-6.916 4.611 6.389-3.689a.5.5 0 0 1 .52.854l-.412.264a.5.5 0 0 1 .437.883l-6.53 4.771 5.985-3.454a.5.5 0 0 1 .538.84l-3.736 2.641 3.2-1.846a.5.5 0 0 1 .54.84l-2.928 2.087 2.388-1.379a.5.5 0 0 1 .549.834l-3.217 2.395 2.666-1.541a.5.5 0 0 1 .568.818l-5.049 4.162a.5.5 0 0 1 .152.691l-.815 1.272.144-.082a.5.5 0 0 1 .5.865l-1.92 1.11a.489.489 0 0 1 -.251.064z" fill="#ea524e"/><path d="m16.628 18.47a.5.5 0 0 1 -.395-.193.5.5 0 0 1 .036-.655l1.866-1.931-4.653 2.686a.5.5 0 0 1 -.55-.832l1.008-.759-2.255 1.3a.5.5 0 0 1 -.552-.831l2.067-1.561-2.965 1.706a.5.5 0 0 1 -.587-.8l3.222-2.945-3.6 2.077a.5.5 0 0 1 -.563-.822l3.463-2.782-2.908 1.681a.5.5 0 0 1 -.74-.535l.31-1.486a.5.5 0 0 1 -.08-.9l.5-.287a.506.506 0 0 1 .542.028.5.5 0 0 1 .2.507l-.26 1.253 7.573-4.379a.5.5 0 0 1 .563.822l-3.464 2.783 1.944-1.121a.5.5 0 0 1 .587.8l-3.222 2.946 5.932-3.425a.5.5 0 0 1 .552.831l-2.066 1.565 2.429-1.4a.5.5 0 0 1 .667.157.5.5 0 0 1 -.117.675l-1 .754.61-.352a.5.5 0 0 1 .609.78l-1.866 1.932 1.257-.726a.5.5 0 0 1 .644.74l-.583.751a.5.5 0 0 1 .152.922l-1.658.957a.5.5 0 0 1 -.644-.739l.38-.489-2.135 1.227a.49.49 0 0 1 -.25.07z" fill="#fff"/><path d="m13.319 8.88a.5.5 0 0 1 -.392-.811l1.262-1.6a.5.5 0 0 1 -.128-.918l1.656-.951a.5.5 0 0 1 .628.105.5.5 0 0 1 .014.638l-1.027 1.3 2.043-1.179a.5.5 0 1 1 .5.865l-4.306 2.484a.5.5 0 0 1 -.25.067z" fill="#fff"/><path d="m7.091 18.47a.5.5 0 0 1 -.383-.822l1.056-1.258-1.484.856a.5.5 0 0 1 -.6-.79l1.092-1.067-.493.284a.5.5 0 0 1 -.628-.761l1.949-2.242-1.32.762a.5.5 0 0 1 -.713-.622l.668-1.633a.5.5 0 0 1 -.4-.909l1.159-.668a.5.5 0 0 1 .713.622l-.66 1.615 2.637-1.522a.5.5 0 0 1 .628.76l-1.949 2.24 1.357-.782a.5.5 0 0 1 .6.79l-1.093 1.068.493-.285a.5.5 0 0 1 .633.754l-1.053 1.259.423-.244a.5.5 0 0 1 .5.865l-2.882 1.66a.49.49 0 0 1 -.25.07z" fill="#3c3cbf"/><path d="m46.357 17.409a.5.5 0 0 1 -.336-.87l2.972-2.7-4.329 2.5a.5.5 0 0 1 -.546-.836l1.231-.9-1.764 1.017a.5.5 0 0 1 -.565-.82l4.27-3.48-5.186 3a.5.5 0 0 1 -.562-.825l4.021-3.195-4.516 2.6a.5.5 0 0 1 -.552-.831l2.09-1.583-2.069 1.195a.5.5 0 0 1 -.566-.822l.52-.421-.168.1a.5.5 0 0 1 -.651-.731l1.563-2.097-.107.061a.5.5 0 0 1 -.5-.865l2.212-1.277a.5.5 0 0 1 .651.731l-1.563 2.094 3.531-2.039a.5.5 0 0 1 .562.821l-.521.422 3.544-2.046a.5.5 0 0 1 .552.831l-2.088 1.585 3.422-1.975a.5.5 0 0 1 .562.824l-4.021 3.194 4.74-2.736a.5.5 0 0 1 .566.82l-4.272 3.48 4.231-2.442a.5.5 0 0 1 .546.836l-1.231.9.5-.289a.5.5 0 0 1 .586.8l-2.972 2.7.059-.035a.5.5 0 0 1 .5.866l-4.1 2.365a.489.489 0 0 1 -.246.073z" fill="#fff"/><path d="m30.487 59.456a.5.5 0 0 1 -.28-.914l6.119-4.134-8.416 4.859a.5.5 0 0 1 -.517-.855l1.1-.7-2.224 1.288a.5.5 0 0 1 -.521-.853l5.593-3.59-6.9 3.985a.5.5 0 0 1 -.516-.856l2.215-1.389-3.067 1.77a.5.5 0 0 1 -.525-.849l13.3-8.79-14.967 8.636a.5.5 0 0 1 -.522-.852l12.868-8.333-14.094 8.137a.5.5 0 0 1 -.518-.855l10.538-6.682-11.363 6.559a.5.5 0 0 1 -.522-.852l15.589-10.111-16.611 9.59a.5.5 0 0 1 -.519-.853l14.322-9.165-15.037 8.682a.5.5 0 0 1 -.517-.855l11.134-7-11.555 6.667a.5.5 0 0 1 -.517-.855l13.536-8.592-13.941 8.048a.5.5 0 0 1 -.512-.858l4.828-2.979-4.889 2.823a.5.5 0 0 1 -.52-.854l16.041-10.327-16.338 9.434a.5.5 0 0 1 -.52-.853l14.317-9.145-14.4 8.317a.5.5 0 0 1 -.513-.858l3.722-2.3-3.518 2.031a.5.5 0 0 1 -.522-.853l14.684-9.471-14.529 8.386a.5.5 0 0 1 -.517-.854l10.594-6.724-10.248 5.915a.5.5 0 0 1 -.512-.857l2.171-1.345-1.689.975a.5.5 0 0 1 -.522-.852l12.047-7.826-11.407 6.584a.5.5 0 0 1 -.525-.85l11.629-7.67-10.704 6.183a.5.5 0 0 1 -.517-.855l1.878-1.184-.949.548a.5.5 0 0 1 -.533-.845l9.823-6.76-8.113 4.682a.5.5 0 0 1 -.542-.839l6.953-5.006-4.271 2.466a.5.5 0 0 1 -.547-.835l3.2-2.366a.5.5 0 0 1 -.005-.869l5.423-3.125a.5.5 0 0 1 .547.835l-1.449 1.07 5.249-3.03a.5.5 0 0 1 .542.839l-6.958 5.006 10.416-6.013a.5.5 0 0 1 .534.845l-9.833 6.762 12.418-7.169a.5.5 0 0 1 .517.856l-1.883 1.184 2.859-1.65a.5.5 0 0 1 .526.85l-11.63 7.67 13.328-7.694a.5.5 0 0 1 .523.852l-12.042 7.825 13.4-7.734a.5.5 0 0 1 .513.858l-2.165 1.341 2.7-1.556a.5.5 0 0 1 .518.855l-10.6 6.725 11.438-6.6a.5.5 0 0 1 .522.852l-14.69 9.468 15.645-9.032a.5.5 0 0 1 .513.858l-3.728 2.301 4.037-2.33a.5.5 0 0 1 .52.853l-14.313 9.143 14.953-8.633a.5.5 0 0 1 .521.854l-16.043 10.326 16.634-9.6a.5.5 0 0 1 .512.859l-4.851 2.989 4.932-2.848a.5.5 0 0 1 .518.855l-13.525 8.585 13.752-7.94a.5.5 0 0 1 .516.856l-11.139 7.007 11.194-6.463a.5.5 0 0 1 .519.854l-14.32 9.162 14.331-8.273a.5.5 0 0 1 .523.852l-15.589 10.11 15.478-8.936a.5.5 0 0 1 .518.855l-10.544 6.686 10.208-5.893a.5.5 0 0 1 .521.853l-12.865 8.331 12.372-7.142a.5.5 0 0 1 .526.85l-13.3 8.789 12.55-7.245a.5.5 0 0 1 .515.856l-2.216 1.388 1.43-.825a.5.5 0 0 1 .521.853l-5.6 3.6 4.561-2.638a.5.5 0 0 1 .518.855l-1.1.7a.5.5 0 0 1 .524.851l-6.117 4.132 4.288-2.475a.5.5 0 0 1 .554.83l-5.354 4.094 1.564-.9a.5.5 0 0 1 .5.866l-8.264 4.765a.5.5 0 0 1 -.554-.83l5.354-4.088-9.86 5.692a.494.494 0 0 1 -.253.064z" fill="#d84545"/><path d="m29.773 54.462a.5.5 0 0 1 -.292-.905l6.477-4.671-8.937 5.16a.5.5 0 0 1 -.524-.852l2.689-1.756-3.752 2.162a.5.5 0 0 1 -.525-.85l5.381-3.539-6.464 3.731a.5.5 0 0 1 -.521-.852l5.088-3.3-5.919 3.417a.5.5 0 0 1 -.53-.848l10.356-6.95-11.485 6.629a.5.5 0 0 1 -.523-.85l8.913-5.835-9.63 5.559a.5.5 0 0 1 -.519-.853l5.92-3.783-6.295 3.634a.5.5 0 0 1 -.52-.853l7.059-4.53-7.384 4.263a.5.5 0 0 1 -.524-.851l10.669-7.019-11.032 6.369a.5.5 0 0 1 -.525-.85l10.921-7.211-11.12 6.419a.5.5 0 0 1 -.53-.847l12.014-8.078-12.066 6.966a.5.5 0 0 1 -.523-.852l7.649-4.973-7.386 4.264a.5.5 0 0 1 -.525-.851l7.557-4.951-7.135 4.118a.5.5 0 0 1 -.525-.849l7.009-4.631-6.371 3.678a.5.5 0 0 1 -.536-.844l8.451-5.859-7.418 4.283a.5.5 0 0 1 -.546-.836l7.279-5.338-5.472 3.158a.5.5 0 0 1 -.573-.813l3.922-3.332a.5.5 0 0 1 -.423-.9l4.682-2.7a.5.5 0 0 1 .573.814l-3.894 3.306 8.606-4.968a.5.5 0 0 1 .546.836l-7.277 5.332 9.967-5.754a.5.5 0 0 1 .535.844l-8.45 5.859 10.265-5.929a.5.5 0 0 1 .525.849l-7.008 4.631 8.092-4.672a.5.5 0 0 1 .525.851l-7.555 4.95 8.437-4.87a.5.5 0 0 1 .522.852l-7.657 4.978 8.353-4.822a.5.5 0 0 1 .53.847l-12.008 8.078 12.885-7.44a.5.5 0 0 1 .526.85l-10.926 7.218 11.463-6.618a.5.5 0 0 1 .524.851l-10.666 7.014 11-6.352a.5.5 0 0 1 .52.854l-7.065 4.533 7.1-4.1a.5.5 0 0 1 .52.854l-5.917 3.78 5.821-3.36a.5.5 0 0 1 .523.85l-8.91 5.833 8.74-5.039a.5.5 0 0 1 .53.848l-10.354 6.952 10.008-5.778a.5.5 0 0 1 .521.852l-5.083 3.3 4.522-2.611a.5.5 0 0 1 .524.85l-5.392 3.541 4.629-2.672a.5.5 0 0 1 .523.852l-2.685 1.756 1.751-1.011a.5.5 0 0 1 .542.838l-6.477 4.671 4.732-2.733a.5.5 0 0 1 .553.831l-3.289 2.507.454-.261a.5.5 0 1 1 .5.865l-7.221 4.169a.5.5 0 0 1 -.553-.83l3.287-2.507-6.523 3.771a.5.5 0 0 1 -.25.062z" fill="#fff"/><path d="m28.469 49.35a.5.5 0 0 1 -.3-.9l4.941-3.73-6.745 3.893a.5.5 0 0 1 -.533-.844l3.391-2.331-4.247 2.451a.5.5 0 0 1 -.545-.836l7.477-5.472-8.62 4.976a.5.5 0 0 1 -.539-.841l7.185-5.088-7.834 4.525a.5.5 0 0 1 -.535-.843l6.467-4.487-6.765 3.906a.5.5 0 0 1 -.541-.839l7.623-5.455-7.75 4.473a.5.5 0 0 1 -.538-.841l6.26-4.421-6.008 3.469a.5.5 0 0 1 -.537-.842l4.608-3.226-4.036 2.329a.5.5 0 0 1 -.529-.848l.635-.426a.509.509 0 0 1 -.547-.2.5.5 0 0 1 .109-.673l4.007-3.114-2.429 1.4a.5.5 0 0 1 -.564-.823l1.96-1.574a.488.488 0 0 1 -.176-.179.5.5 0 0 1 .182-.683l3.83-2.211a.5.5 0 0 1 .564.822l-.651.523 3.1-1.787a.5.5 0 0 1 .557.827l-4.008 3.114 6.133-3.544a.5.5 0 0 1 .528.848l-.44.3 1.181-.682a.5.5 0 0 1 .537.842l-4.6 3.224 5.58-3.232a.5.5 0 0 1 .538.841l-6.263 4.421 7.135-4.118a.5.5 0 0 1 .541.839l-7.622 5.457 8.327-4.807a.5.5 0 0 1 .535.843l-6.462 4.483 6.746-3.9a.5.5 0 0 1 .539.841l-7.19 5.1 7.276-4.2a.5.5 0 0 1 .545.836l-7.474 5.464 7.228-4.173a.5.5 0 0 1 .533.845l-3.393 2.334 2.791-1.606a.5.5 0 0 1 .55.832l-4.941 3.73 3.793-2.189a.5.5 0 0 1 .565.82l-2.804 2.285.633-.365a.5.5 0 0 1 .5.865l-6.044 3.491a.5.5 0 0 1 -.566-.821l2.813-2.29-5.412 3.124a.493.493 0 0 1 -.255.068z" fill="#d84545"/><path d="m29.076 44.376a.5.5 0 0 1 -.343-.864l2.71-2.546-4.193 2.42a.5.5 0 0 1 -.569-.818l2.876-2.381-3.445 1.988a.5.5 0 0 1 -.579-.809l3.567-3.118-3.72 2.145a.5.5 0 0 1 -.568-.82l2.051-1.683-1.536.886a.5.5 0 0 1 -.616-.776l1.7-1.825a.506.506 0 0 1 -.536-.24.5.5 0 0 1 .183-.682l2.684-1.55a.5.5 0 0 1 .616.773l-1.641 1.764 3.923-2.264a.5.5 0 0 1 .567.819l-2.053 1.685 2.861-1.651a.5.5 0 0 1 .579.809l-3.562 3.118 4.168-2.402a.5.5 0 0 1 .57.817l-2.876 2.382 2.788-1.61a.5.5 0 0 1 .592.8l-2.709 2.545 1.876-1.088a.5.5 0 1 1 .5.865l-5.615 3.243a.5.5 0 0 1 -.25.068z" fill="#fff"/><g fill="#262626"><path d="m19.214 10.61c-.6-.013-1.21 0-1.815 0 2.074-3.223 1.424-7.823-3.184-5.306-1.653 1.349-1.243 4.641-3.562 5.259-.686-1.65-5.347-1.4-5.377.751.081 4.291-1.3 9.051 4.966 6.5 3.183.775 7.186 1.111 10.3.045 1.981-1.586 2.017-7.324-1.328-7.249zm-10.1 7.014c-.046.092-.116.149-.149.012-.823-.071-2.265.385-2.242-.872.135-2.1-.274-4.368.166-6.393 1.038-.022 2.643-.333 2.385 1.231a51.714 51.714 0 0 1 -.126 5.974.9.9 0 0 1 .144.061.4.4 0 0 0 -.177-.013zm10.787-.4a14.512 14.512 0 0 1 -9.178-.463c0-1.822 0-3.661 0-5.488 3.811-.032 3.233-7.1 5.853-5.561 2.2 1.42-1.653 4.824-.305 5.674 4.398-.822 4.674 2.54 3.629 5.842z"/><path d="m8.966 17.636c.038 0 .092-.007.149-.012.013-.016.021-.032.034-.048-.149-.05-.191.003-.183.06z"/><path d="m59.727 5.029c1.239-8.12-17.225-3.3-22.384-4.47-7.327.719-2.984 13.113-4.072 18.261a21.153 21.153 0 0 0 -6.555.1c.984-25.306-.467-17.062-22.109-18.373-5.646-.139-4.237 6.253-4.335 10.034.393 4.333-2.08 12.866 5 11.877-1.166 9.794 5.974 2.249 9.918.013.963.027 1.915-.045 2.874-.019-10.019 6.56-11.738 21.836-3.378 30.424-7.2 5.346-.961 9.522 3.744 3.132a21.026 21.026 0 0 0 22.79 0c1.909 2.539 6.393 5.835 7.512.875-.211-1.955-2.274-2.934-3.414-4.36 8.219-8.339 6.622-23.548-3.059-30.087a18.4 18.4 0 0 0 2.266-.016c3.824 2.382 11.265 9.676 10.2.032 8.646.174 3.844-12.007 5.002-17.423zm-44.456 16.519c-4.066.647-9.7 10.191-8.543.374-.877-.991-3.174.262-4.178-1.1-2-4.768-.276-10.748-.823-15.925-1.886-6.283 16.734-2.5 20.9-3.447 4.97.277 1.861 13.871 2.631 17.775-3.439.984-6.293 2.841-9.987 2.323zm-.507 36.891c-.378.482-.971.15-1.342-.145-1.964-1.761.676-3.521 1.865-4.784a20.086 20.086 0 0 0 2.4 2.008c-.974.974-1.934 1.964-2.923 2.921zm32.16-2.339c.914 1.009-.134 3.169-1.5 2.15-1.053-.97-2.031-2.03-3.059-3.031a21.174 21.174 0 0 0 1.994-1.7c.83.881 1.791 1.653 2.565 2.581zm2.349-16.952c.493 17.905-23.563 26.413-34.265 12.006-12.46-15.116 4.237-38.295 22.407-30.14l-1.639 3.642c-22.882-7.406-30.714 28.244-6.076 29.67 16.056.651 22.288-22.631 7.227-29.2l1.606-3.568a20.139 20.139 0 0 1 10.74 17.588zm-15.073.724c-.6 4.35-6.9 4.709-8.186.6-1.29-3.179 1.873-6.919 5.2-5.681-3.22 5.733-1.163 6.458 1.1.566a4.623 4.623 0 0 1 1.886 4.515zm-7.083-5.618c-4.969 2.688-2.8 10.505 2.83 10.3 5.581.186 8.054-7.8 2.923-10.415q.767-1.7 1.531-3.4c8.19 4.3 5.171 17.8-4.232 17.74-14.434-.5-10.733-23.169 3.116-18.278q-.784 1.742-1.568 3.484a5.952 5.952 0 0 0 -4.604.569zm-2.435-4.321c-9.368 4.935-5.4 19.925 5.181 19.573 10.838.43 15.074-15.274 5.055-19.918q.786-1.746 1.573-3.494c12.87 6.382 8.462 27.661-6.183 27.58-22.57-1.087-16.568-36.1 5.069-28.124l-1.6 3.567a11.082 11.082 0 0 0 -9.099.816zm33.548-10.365c-.846 4.07-5.993-.489-4.956 4.9 1.01 5.192-6.094-2.695-8-2.9-2.2-.11-4.385.4-6.282-1.033q.364-.813.731-1.625c-.36-.8-1.783.262-1.867 1.129a17.955 17.955 0 0 0 -3.107-.944c.38-4.095-1.521-15.095 1.304-17.495 1.347-.367 2.827-.063 4.224-.156 21.123-.067 18.105-2.977 17.953 18.124z"/><path d="m50.7 5.7a4.609 4.609 0 0 0 -4.07 1.107c-8.708-4.832-10.161 7.65-.783 10.509 5.089-.08 11.881-9.041 4.853-11.616zm-3.974 10.8c-8.759-2.915-6.562-14.153-.9-8.452.226.367 1.173.012 1.347-.269 5.202-5.044 7.999 5.843-.447 8.721z"/></g></svg>