<svg id="Layer_1" enable-background="new 0 0 512 512" viewBox="0 0 512 512" xmlns="http://www.w3.org/2000/svg" xmlns:xlink="http://www.w3.org/1999/xlink"><linearGradient id="SVGID_1_" gradientTransform="matrix(1 0 0 -1 0 512.39)" gradientUnits="userSpaceOnUse" x1="256.05" x2="256.05" y1="512.34" y2=".34"><stop offset="0" stop-color="#f704fe"/><stop offset="1" stop-color="#24bce3"/></linearGradient><g clip-rule="evenodd" fill-rule="evenodd"><circle cx="256" cy="256" fill="url(#SVGID_1_)" r="256"/><g fill="#fffffe"><path d="m207.2 365.5 14-21-32.8-39c-1.1-1.3-1-3.2.1-4.4l27.2-28.1h-10c-8.2 0-16 1.6-23.1 4.4-.1.1-.3.2-.5.3-.1.1-.2.1-.3.1-23.1 9.5-39.3 32.2-39.3 58.6v63.4h90.7l-25.7-30.1c-.9-1.5-1.1-3.1-.3-4.2z"/><path d="m226.9 256.1v13.1l4.8 20c16.7 4.2 31.9 4.2 48.5 0l4.8-19.9v-13.1c-8.4 5.4-18.4 8.5-29.1 8.5-10.5-.1-20.7-3.3-29-8.6z"/><path d="m225.8 292.5-4-16.4-26.4 27.3 32.5 38.7c1 1.1 1 2.7.2 4l-14 21 27.8 32.5h10l-26-106.8c0-.2-.1-.2-.1-.3z"/><path d="m278.5 296.4c-7.7 1.7-15.2 2.5-22.5 2.5-7.4 0-14.8-.8-22.5-2.5l22.5 92.6z"/><path d="m283.9 346c-.8-1.2-.8-2.8.2-4l32.5-38.7-26.4-27.3-4 16.4c0 .1 0 .1-.1.2l-25.9 106.8h10l27.8-32.4z"/><path d="m330.1 277.6c-.1 0-.2-.1-.3-.1-.2-.1-.3-.1-.5-.3-7.2-2.9-15-4.4-23.2-4.4h-10l27.2 28.1c1.2 1.2 1.2 3.1.1 4.4l-32.8 39 14 21c.8 1.2.8 2.9-.2 4l-25.7 30.2h90.7v-63.4c.1-26.3-16.2-49.1-39.3-58.5z"/><path d="m324.1 216.4c0 10.2-8.3 18.5-18.5 18.5h-1.2c-3.1 6.2-7.5 11.7-12.7 16.3v15.2h14.5c8 0 15.6 1.4 22.8 3.8 4.2-13.8 6.1-32.1 1.8-40.3-2.7-5.1-4.8-12-6.6-20.5z"/><path d="m205.9 266.4h14.5v-15.2c-11.4-10-18.6-24.6-18.6-40.9h-8.1c-2 0-4-.4-5.8-1.2-1.6 8.5-3.9 15.5-6.6 20.6-4.3 8.3-2.5 26.6 1.8 40.3 7.1-2.2 14.8-3.6 22.8-3.6z"/><path d="m204.1 171.9c4.4-2.3 26.3-13.9 39-16.3 2.3-.5 4.5 0 6.5 1.2.8.5 1.6 1.1 2.6 1.8 8.5 5.9 26.4 18.3 54.2 13.4h.1c.2 0 .4-.1.5-.1h11.4c.8 0 1.4.1 2.1.1-.1-2.8-.1-5.7-.1-8.5 0-28.2-22.9-51.1-51.1-51.1h-26.5c-28.2 0-51.1 22.9-51.1 51.1 0 2.8-.1 5.6-.1 8.5.7-.1 1.4-.1 2.1-.1z"/><path d="m310.4 178.4v25.3h8.1c.5 0 1.2-.1 1.7-.2.1 0 .1-.1.2-.1 1.4-.3 2.7-1.1 3.7-2 .1-.1.2-.2.3-.3 1.3-1.4 2.1-3.3 2.1-5.5v-9.1c0-2.9-1.6-5.5-4-7-.1-.1-.2-.1-.3-.2-1.2-.6-2.4-1-3.8-1z"/><path d="m286.8 246.9c4-3.4 7.5-7.4 10.2-11.9h-18.8c-.8 5.7-5.7 10.1-11.7 10.1h-12.6c-6.5 0-11.8-5.3-11.8-11.8v-3.1c0-6.5 5.3-11.8 11.8-11.8h12.6c5.9 0 10.9 4.4 11.7 10.1h22.1c2.3-5.5 3.5-11.6 3.5-18v-3.3-28c-28.3 3.7-46.4-8.9-55.3-15-.9-.6-1.7-1.2-2.4-1.6-.5-.3-1-.4-1.6-.3-10.9 2.2-30.3 12.1-36.1 15.2v29.8 3.3c0 14.6 6.6 27.7 17 36.5.3.2.5.4.8.6 8.2 6.6 18.6 10.6 30 10.6 11.3 0 21.8-4 30-10.6 0-.5.3-.6.6-.8z"/><path d="m187.6 201.1.3.3c1.4 1.4 3.4 2.3 5.6 2.3h8.1v-25.3h-8.1c-1.4 0-2.7.3-3.8 1-.1.1-.2.1-.3.1-2.4 1.4-4 4-4 7v9.1c.2 2.3 1 4.2 2.2 5.5z"/><path d="m271.6 230.1c0-2.9-2.4-5.3-5.3-5.3h-12.6c-2.9 0-5.3 2.4-5.3 5.3v3.1c0 2.9 2.3 5.3 5.3 5.3h12.6c2.9 0 5.3-2.4 5.3-5.3v-1.5s0 0 0-.1c0 0 0 0 0-.1z"/><path d="m317.6 216.4v-6h-7.3c0 6.3-1.1 12.3-3 17.9 5.8-.9 10.3-5.9 10.3-11.9z"/></g></g></svg>