<svg enable-background="new 0 0 64 64" height="512" viewBox="0 0 64 64" width="512" xmlns="http://www.w3.org/2000/svg"><g id="Save_Whale"><g><path d="m61.97 35.41c-.12 2.57-.58 5.05-1.34 7.4 0 0 0 0-.01.01-.49.48-16.05 15.75-26.6 15.75-10.72 0-29.55-20.23-29.55-20.23.08-.42.3-.81.63-1.1 9.65-8.43 22.76-11.36 35.07-7.84l3.34.95c2.35.67 4.8-.62 5.58-2.94.45-1.34.25-2.79-.53-3.97l-.72-1.07c-1.6-2.4-3.83-4.35-6.4-5.62-1.07 2.5-3.56 4.25-6.44 4.25h-3c-1.1 0-2-.9-2-2v-3c0-1.87.73-3.63 2.05-4.95-.96-1.05-1.62-2.27-1.91-3.6-.1-.55-.14-1.01-.14-1.45v-3c0-1.1.9-2 2-2h3c3.28 0 6.07 2.3 6.81 5.37 12.37 3.94 20.78 15.94 20.16 29.04z" fill="#48a1ff"/><path d="m60.63 42.81c-1.46 4.58-4.04 8.66-7.39 11.93-5.09 4.96-11.98 8.08-19.55 8.25-.22.01-.45.01-.67.01-13.92 0-26.14-10.17-28.57-23.9-.04-.25-.04-.51.02-.76 6.08 5.25 30.17 23.24 56.16 4.47z" fill="#aad7fd"/><path d="m39.5 57.33c-.38.43-.93.67-1.5.67-.08 0-.16 0-.25-.02l-.77-.09c-5.19-.65-9.47-4.32-10.9-9.34-.18-.6-.05-1.25.32-1.75.38-.51.97-.8 1.6-.8h8c.92 0 1.72.62 1.94 1.51l2 8c.16.64-.01 1.32-.44 1.82z" fill="#48a1ff"/><path d="m22.02 39c-1.104 0-2.005-.896-2.005-2s.891-2 1.995-2h.01c1.105 0 2 .896 2 2s-.895 2-2 2z" fill="#2c39fd"/><path d="m26 7v4.56c0 7.13-4.59 13.31-11.43 15.36-.18.05-.38.08-.57.08s-.39-.03-.57-.08c-6.84-2.05-11.43-8.23-11.43-15.36v-4.56c0-.82.5-1.55 1.26-1.86l10-4c.48-.19 1-.19 1.48 0l10 4c.76.31 1.26 1.04 1.26 1.86z" fill="#2c39fd"/><path d="m13 18c-.512 0-1.023-.195-1.414-.586l-2-2c-.781-.781-.781-2.047 0-2.828s2.047-.781 2.828 0l.586.586 2.586-2.586c.781-.781 2.047-.781 2.828 0s.781 2.047 0 2.828l-4 4c-.391.391-.902.586-1.414.586z" fill="#f2f2fd"/></g></g></svg>