<svg id="Layer_1" enable-background="new 0 0 550 550" viewBox="0 0 550 550" xmlns="http://www.w3.org/2000/svg" xmlns:xlink="http://www.w3.org/1999/xlink"><linearGradient id="SVGID_1_" gradientTransform="matrix(1 0 0 -1 0 550)" gradientUnits="userSpaceOnUse" x1="275" x2="275" y1="550" y2="0"><stop offset="0" stop-color="#5d91f9"/><stop offset="1" stop-color="#c823ff"/></linearGradient><circle cx="275" cy="275" fill="url(#SVGID_1_)" r="275"/><g id="_x31_8831_-_Judge_Hammer"><g id="XMLID_536_"><g id="XMLID_526_"><path d="m110.2 406.5h189.9v33.5h-189.9z" fill="#fff"/></g><g id="XMLID_527_"><path d="m127 361.8h156.4v33.5h-156.4z" fill="#fff"/></g><g id="XMLID_535_"><g id="XMLID_530_"><path d="m201.3 179.2h134v67h-134z" fill="#fff" transform="matrix(.707 -.707 .707 .707 -71.815 252.02)"/></g><g id="XMLID_532_"><path d="m371 173.2-15.8 15.8-3.9-3.9s0 0-.1-.1l-55.2-55.2-4-4 15.8-15.8z" fill="#fff"/></g><g id="XMLID_534_"><path d="m244.6 299.6-15.8 15.8-63.2-63.2 15.8-15.8 4 3.9z" fill="#fff"/></g><g id="XMLID_533_"><path d="m312.7 240.3c0 1.4-.2 2.8-.5 4.2-.7 2.9-2.2 5.5-4.4 7.7-5.2 5.1-12.8 6.2-19.1 3.3l22.3-22.3c1.1 2.1 1.7 4.6 1.7 7.1z" fill="#fff"/></g><g id="XMLID_540_"><path d="m439.8 378.6c0 1.5-.6 2.9-1.6 4-1.1 1.1-2.5 1.6-3.9 1.6-1.5 0-2.9-.6-4-1.6l-119-119c1.5-1 3-2.2 4.3-3.6 1.3-1.3 2.5-2.8 3.6-4.3l118.9 118.9c1.1 1.1 1.7 2.5 1.7 4z" fill="#fff"/></g></g></g></g></svg>