<svg id="&#x421;&#x43B;&#x43E;&#x439;_1" enable-background="new 0 0 512 512" height="512" viewBox="0 0 512 512" width="512" xmlns="http://www.w3.org/2000/svg"><g id="youtube"><g><path d="m511.994 256.008c0 141.387-114.607 255.988-255.996 255.988-141.393 0-256.004-114.609-255.992-255.988-.012-141.397 114.599-256.004 255.992-256.004 141.389 0 255.996 114.615 255.996 256.004z" fill="#fa2216"/><path d="m322.794 149.539-14.687-14.68-4.789 34.188-1.188 1.188-29.586-29.594-1.172 1.172-36.977-36.975-10.444 31.131-31.398-31.389 2.492 37.764 20.055 20.047-19.305 57.578 28.397 28.391-8.976 8.998-69.968-1.172-10.391 144.936 110.61 110.608c3.492.141 7 .266 10.531.266 124.67 0 228.488-89.141 251.285-207.154l-169.919-169.912z" opacity=".15"/></g><g id="You_tube_2_" fill="#f4f6f9"><path d="m195.796 219.969h17.719v-46.805l20.616-68.592-17.999.008-11.36 46.123-12.218-46.123-17.851-.008 21.093 68.592z"/><path d="m303.365 221.203c4.758 0 11.375-2.5 18.187-10.625v9.391h15.742v-85.125h-15.742v64.602c-1.913 2.422-6.187 6.391-9.249 6.391-3.359 0-4.195-2.32-4.195-5.742v-65.234h-15.734v71.139c-.001 8.391 2.554 15.203 10.991 15.203z"/><path d="m233.326 198.742c0 14.992 7.797 22.82 23.07 22.82 12.656 0 22.617-8.523 22.617-22.828v-41.719c0-13.313-9.867-22.875-22.617-22.867-13.867 0-23.07 9.211-23.07 22.867zm16.203-40.312c0-4.664 2.133-8.133 6.547-8.133 4.828 0 6.898 3.367 6.898 8.125l.008 39.594c0 4.641-2.359 8.047-6.586 8.047-4.352 0-6.867-3.563-6.867-8.047z"/><path d="m337.755 313.998c-5.555 0-6.695 3.93-6.695 9.484v8.219h13.242v-8.219c-.008-5.461-1.156-9.484-6.547-9.484z"/><path d="m279.482 314.498c-1.031.531-2.078 1.352-3.086 2.484v50.5c1.219 1.336 2.398 2.281 3.547 2.852 2.438 1.242 6.008 1.352 7.664-.836.867-1.148 1.305-2.984 1.305-5.594v-41.844c0-2.727-.539-4.813-1.602-6.227-1.812-2.405-5.203-2.679-7.828-1.335z"/><path d="m360.668 244.242-209.348-.008c-12.852 0-23.266 10.469-23.258 23.396l-.008 116.959c0 12.93 10.414 23.391 23.266 23.391h209.348c12.852 0 23.273-10.461 23.273-23.391v-116.958c0-12.928-10.421-23.389-23.273-23.389zm-174.059 138.662h-16.883v-93.922h-17.453v-15.961h51.796v15.961h-17.46zm60.037 0h-14.992v-8.938c-2.758 3.313-5.641 5.813-8.608 7.531-8.094 4.654-19.18 4.561-19.18-11.883v-67.742h14.984v62.109c0 3.273.781 5.484 3.984 5.484 2.929 0 6.991-3.781 8.819-6.078v-61.516h14.992v81.033zm57.68-16.789c0 10.055-3.727 17.836-13.703 17.836-5.492 0-10.055-2.023-14.227-7.266v6.219h-15.133v-109.883h15.133v35.383c3.375-4.141 7.977-7.57 13.328-7.57 10.977 0 14.602 9.328 14.602 20.32zm55.397-21.836h-28.663v15.297c0 6.078.516 11.328 6.547 11.328 6.32 0 6.688-4.273 6.688-11.328v-5.633l15.429.008v6.078c0 15.625-6.672 25.061-22.46 25.061-14.313 0-21.624-10.459-21.624-25.045v-36.391c0-14.078 9.249-23.836 22.765-23.836 14.382 0 21.319 9.18 21.319 23.836v20.625z"/></g></g></svg>