<?xml version="1.0" encoding="utf-8"?>
<!-- Generator: Adobe Illustrator 27.5.0, SVG Export Plug-In . SVG Version: 6.00 Build 0)  -->
<svg version="1.1" xmlns="http://www.w3.org/2000/svg" xmlns:xlink="http://www.w3.org/1999/xlink" x="0px" y="0px"
	 viewBox="0 0 650 500" style="enable-background:new 0 0 650 500;" xml:space="preserve">
<g id="BACKGROUND">
	<rect style="fill:#F2E9DA;" width="650" height="500"/>
</g>
<g id="OBJECTS">
	<g>
		<path style="fill:#B8D5DD;" d="M602.584,355.692c-68.79,132.85-244.87-2.81-391.27,50.77c-98.78,36.71-203.44,19.79-195.84-107.24
			c13.93-91.27,87.09-164.62,167.06-204.67c87.22-40.1,189.78-61.11,281.97-25.17C575.004,108.262,655.174,243.732,602.584,355.692z
			"/>
	</g>
	<g>
		<g>
			<g>
				<path style="fill:#F2E9DA;" d="M555.058,215.298L555.058,215.298c-0.152,0-0.293-0.081-0.369-0.213l-6.526-11.297
					c-0.077-0.132-0.077-0.294,0-0.426l6.526-11.297c0.076-0.132,0.216-0.213,0.369-0.213l0,0c0.152,0,0.293,0.081,0.369,0.213
					l6.541,11.297c0.077,0.132,0.077,0.295,0,0.427l-6.541,11.297C555.351,215.217,555.21,215.298,555.058,215.298z
					 M549.024,203.575l6.035,10.445l6.047-10.445l-6.047-10.445L549.024,203.575z"/>
			</g>
		</g>
		<g>
			<g>
				<path style="fill:#F2E9DA;" d="M536.91,201.764c-2.026,0-3.676-1.649-3.676-3.676s1.649-3.676,3.676-3.676
					s3.675,1.649,3.675,3.676S538.937,201.764,536.91,201.764z M536.91,195.265c-1.557,0-2.823,1.266-2.823,2.823
					s1.266,2.823,2.823,2.823c1.557,0,2.823-1.266,2.823-2.823S538.467,195.265,536.91,195.265z"/>
			</g>
		</g>
		<g>
			<g>
				<path style="fill:#F2E9DA;" d="M548.532,187.268c-1.752,0-3.177-1.425-3.177-3.177s1.425-3.177,3.177-3.177
					s3.177,1.425,3.177,3.177S550.284,187.268,548.532,187.268z M548.532,181.767c-1.282,0-2.324,1.043-2.324,2.324
					c0,1.282,1.042,2.324,2.324,2.324s2.324-1.043,2.324-2.324C550.856,182.81,549.814,181.767,548.532,181.767z"/>
			</g>
		</g>
		<g>
			<g>
				<path style="fill:#F2E9DA;" d="M533.661,188.853c-1.259,0-2.283-1.024-2.283-2.283s1.024-2.283,2.283-2.283
					s2.283,1.024,2.283,2.283S534.92,188.853,533.661,188.853z M533.661,185.139c-0.788,0-1.43,0.642-1.43,1.431
					s0.642,1.431,1.43,1.431s1.43-0.642,1.43-1.431S534.449,185.139,533.661,185.139z"/>
			</g>
		</g>
		<g>
			<g>
				<path style="fill:#F2E9DA;" d="M146.378,166.021L146.378,166.021c-0.152,0-0.293-0.082-0.369-0.213l-4.993-8.644
					c-0.076-0.132-0.076-0.295,0-0.426l4.993-8.644c0.076-0.132,0.217-0.213,0.369-0.213l0,0c0.152,0,0.293,0.081,0.369,0.212
					l5.005,8.644c0.077,0.132,0.077,0.296,0,0.428l-5.005,8.644C146.67,165.941,146.53,166.021,146.378,166.021z M141.877,156.951
					l4.501,7.792l4.512-7.792l-4.512-7.792L141.877,156.951z"/>
			</g>
		</g>
		<g>
			<g>
				<path style="fill:#F2E9DA;" d="M134.564,153.045c-2.027,0-3.676-1.649-3.676-3.676c0-2.026,1.649-3.676,3.676-3.676
					c2.027,0,3.676,1.649,3.676,3.676C138.239,151.396,136.59,153.045,134.564,153.045z M134.564,146.547
					c-1.557,0-2.823,1.266-2.823,2.823c0,1.557,1.266,2.823,2.823,2.823c1.557,0,2.823-1.266,2.823-2.823
					C137.387,147.813,136.12,146.547,134.564,146.547z"/>
			</g>
		</g>
		<g>
			<g>
				<path style="fill:#F2E9DA;" d="M146.186,143.297c-1.752,0-3.177-1.425-3.177-3.177c0-1.752,1.425-3.177,3.177-3.177
					c1.752,0,3.177,1.425,3.177,3.177C149.363,141.872,147.937,143.297,146.186,143.297z M146.186,137.796
					c-1.282,0-2.325,1.042-2.325,2.324s1.043,2.324,2.325,2.324c1.282,0,2.324-1.042,2.324-2.324S147.467,137.796,146.186,137.796z"
					/>
			</g>
		</g>
		<g>
			<g>
				<path style="fill:#F2E9DA;" d="M134.564,139.653c-1.259,0-2.283-1.024-2.283-2.283c0-1.259,1.024-2.284,2.283-2.284
					c1.259,0,2.283,1.025,2.283,2.284C136.846,138.629,135.822,139.653,134.564,139.653z M134.564,135.939
					c-0.789,0-1.431,0.642-1.431,1.431c0,0.788,0.642,1.43,1.431,1.43c0.789,0,1.43-0.642,1.43-1.43
					C135.994,136.581,135.352,135.939,134.564,135.939z"/>
			</g>
		</g>
		<g>
			<g>
				<path style="fill:#F2E9DA;" d="M406.832,221.552L406.832,221.552c-0.152,0-0.293-0.081-0.369-0.213l-6.526-11.297
					c-0.076-0.132-0.076-0.294,0-0.426l6.526-11.297c0.076-0.132,0.217-0.213,0.369-0.213l0,0c0.152,0,0.293,0.081,0.369,0.213
					l6.541,11.297c0.077,0.132,0.077,0.295,0,0.427l-6.541,11.297C407.125,221.471,406.984,221.552,406.832,221.552z
					 M400.799,209.829l6.034,10.445l6.048-10.445l-6.048-10.445L400.799,209.829z"/>
			</g>
		</g>
		<g>
			<g>
				<path style="fill:#F2E9DA;" d="M433.939,214.326c-2.027,0-3.676-1.649-3.676-3.676s1.649-3.676,3.676-3.676
					s3.676,1.649,3.676,3.676S435.966,214.326,433.939,214.326z M433.939,207.828c-1.557,0-2.823,1.266-2.823,2.823
					c0,1.557,1.266,2.823,2.823,2.823c1.557,0,2.823-1.266,2.823-2.823C436.762,209.094,435.496,207.828,433.939,207.828z"/>
			</g>
		</g>
		<g>
			<g>
				<path style="fill:#F2E9DA;" d="M400.662,193.522c-1.752,0-3.177-1.425-3.177-3.177c0-1.752,1.425-3.177,3.177-3.177
					s3.177,1.425,3.177,3.177C403.839,192.097,402.414,193.522,400.662,193.522z M400.662,188.02c-1.282,0-2.324,1.043-2.324,2.325
					c0,1.282,1.043,2.324,2.324,2.324s2.324-1.043,2.324-2.324C402.986,189.063,401.944,188.02,400.662,188.02z"/>
			</g>
		</g>
		<g>
			<g>
				<path style="fill:#F2E9DA;" d="M420.291,206.501c-1.259,0-2.283-1.024-2.283-2.283s1.024-2.283,2.283-2.283
					c1.259,0,2.283,1.024,2.283,2.283S421.549,206.501,420.291,206.501z M420.291,202.787c-0.789,0-1.431,0.642-1.431,1.431
					s0.642,1.43,1.431,1.43c0.789,0,1.43-0.641,1.43-1.43S421.079,202.787,420.291,202.787z"/>
			</g>
		</g>
		<g>
			<g>
				<path style="fill:#F2E9DA;" d="M421.074,193.522L421.074,193.522c-0.152,0-0.293-0.081-0.369-0.213l-4.099-7.095
					c-0.076-0.132-0.076-0.294,0-0.426l4.099-7.095c0.076-0.132,0.217-0.213,0.369-0.213l0,0c0.152,0,0.293,0.081,0.369,0.213
					l4.108,7.095c0.077,0.132,0.077,0.295,0,0.427l-4.108,7.095C421.367,193.441,421.226,193.522,421.074,193.522z M417.467,186.001
					l3.607,6.244l3.615-6.244l-3.615-6.243L417.467,186.001z"/>
			</g>
		</g>
		<g>
			<g>
				<path style="fill:#F2E9DA;" d="M385.595,220.085c-1.259,0-2.283-1.024-2.283-2.283c0-1.259,1.024-2.283,2.283-2.283
					c1.259,0,2.283,1.024,2.283,2.283C387.877,219.061,386.853,220.085,385.595,220.085z M385.595,216.372
					c-0.789,0-1.431,0.641-1.431,1.43c0,0.789,0.642,1.431,1.431,1.431c0.789,0,1.43-0.642,1.43-1.431
					C387.025,217.013,386.383,216.372,385.595,216.372z"/>
			</g>
		</g>
	</g>
	<g>
		<g>
			<g>
				<g>
					<path style="fill:#F2E9DA;" d="M530.273,169.852c-2.668,8.415-8.309,13.435-16.169,11.915l3.609,35.138l-33.834,28.415
						l-11.77-19.379l-5.495-9.022v-9.987l-6.182-4.954c-10.33-8.283-16.341-20.793-16.341-34.029v-28.851
						c0.066,0.026,0.145,0.04,0.211,0.053c5.125,1.07,10.449,0.674,15.614-0.185c5.971-0.978,11.889-2.589,17.173-5.522
						c0.198,1.651,1.044,3.289,2.272,4.412c2.219,2.021,5.363,2.695,8.362,2.721c4.201,0.026,8.402-1.096,12.034-3.223
						c2.246,5.178,4.663,10.291,7.252,15.31v0.132c0.013-0.013,0.026-0.026,0.04-0.04c2.748-2.695,6.275-4.386,9.96-4.716
						c1.915-0.172,3.87,0.026,5.786,0.634C531.132,151.332,533.139,160.83,530.273,169.852z"/>
				</g>
			</g>
			<g>
				<g>
					<path style="fill:#25292B;" d="M517.671,138.003l-0.66,10.04c-3.686,0.33-7.213,2.021-9.96,4.716
						c-0.013-0.026-0.026-0.066-0.04-0.092c-2.589-5.02-5.007-10.132-7.252-15.31c-3.633,2.127-7.834,3.25-12.034,3.223
						c-2.999-0.026-6.143-0.7-8.362-2.721c-1.229-1.123-2.074-2.761-2.272-4.412c-5.284,2.933-11.202,4.544-17.173,5.522
						c-5.165,0.859-10.489,1.255-15.614,0.185c-0.066-0.013-0.145-0.026-0.211-0.053c-5.059-1.083-9.907-3.738-12.84-7.992
						c-2.972-4.32-3.633-10.37-0.885-14.835c2.946-4.769,9.643-6.803,14.742-4.452c-2.47-3.712-3.421-8.534-2.034-12.787
						c1.374-4.24,5.218-7.715,9.67-8.177c4.293-0.449,8.52,1.836,11.4,5.046c2.893,3.21,4.65,7.265,6.209,11.295
						c1.176-3.646,4.848-6.248,8.666-6.394c3.818-0.145,7.583,2.061,9.524,5.35c1.955,3.289,2.114,7.516,0.674,11.044l9.458,0.159
						C509.745,117.554,518.397,126.959,517.671,138.003z"/>
				</g>
			</g>
			<g>
				<g>
					<ellipse style="fill:#25292B;" cx="452.41" cy="162.183" rx="4.305" ry="4.762"/>
				</g>
			</g>
			<g>
				<g>
					<ellipse style="fill:#25292B;" cx="478.58" cy="162.183" rx="4.305" ry="4.762"/>
				</g>
			</g>
			<g>
				<g>
					<path style="fill:#25292B;" d="M455.978,151.053c-3.271-1.039-6.952-0.46-9.615,1.77c-0.529,0.443-0.757,1.26-0.292,1.845
						c0.42,0.529,1.279,0.766,1.845,0.292c0.262-0.219,0.533-0.425,0.818-0.612c0.139-0.091,0.282-0.178,0.426-0.261
						c0.016-0.009,0.033-0.018,0.049-0.026c0.076-0.038,0.152-0.077,0.229-0.113c0.307-0.147,0.624-0.276,0.946-0.386
						c0.161-0.055,0.325-0.104,0.488-0.152c0.029-0.009,0.057-0.016,0.079-0.022c0.091-0.021,0.182-0.041,0.273-0.059
						c0.335-0.066,0.673-0.113,1.013-0.141c0.17-0.014,0.34-0.023,0.511-0.027c0.085-0.002,0.17-0.003,0.256-0.002
						c0.004,0,0.001,0,0.005,0c0.01,0.001,0.004,0.001,0.024,0.002c0.341,0.021,0.679,0.053,1.015,0.11
						c0.168,0.028,0.335,0.062,0.501,0.101c0.083,0.019,0.165,0.041,0.248,0.062c0.023,0.006,0.033,0.008,0.042,0.01
						c0.016,0.005,0.026,0.008,0.047,0.015c0.656,0.208,1.463,0.059,1.749-0.657C456.876,152.203,456.683,151.277,455.978,151.053z"
						/>
				</g>
			</g>
			<g>
				<g>
					<path style="fill:#25292B;" d="M474.373,152.803c0.287,0.716,1.094,0.865,1.749,0.657c0.022-0.007,0.031-0.01,0.047-0.015
						c0.009-0.002,0.02-0.004,0.042-0.01c0.083-0.021,0.165-0.043,0.248-0.062c0.166-0.039,0.333-0.072,0.501-0.101
						c0.336-0.057,0.675-0.089,1.015-0.11c0.02-0.001,0.013-0.001,0.024-0.002c0.004,0,0.001,0,0.005,0c0.085,0,0.17,0,0.255,0.002
						c0.17,0.004,0.341,0.013,0.511,0.027c0.34,0.028,0.678,0.075,1.013,0.141c0.091,0.018,0.182,0.038,0.273,0.059
						c0.021,0.006,0.049,0.013,0.079,0.022c0.164,0.048,0.327,0.096,0.488,0.152c0.322,0.11,0.639,0.239,0.946,0.386
						c0.077,0.037,0.153,0.075,0.229,0.113c0.016,0.008,0.034,0.018,0.049,0.026c0.144,0.084,0.287,0.17,0.426,0.261
						c0.285,0.187,0.557,0.393,0.818,0.612c0.566,0.474,1.425,0.237,1.845-0.292c0.465-0.585,0.237-1.402-0.292-1.845
						c-2.663-2.23-6.344-2.809-9.615-1.77C474.326,151.277,474.133,152.203,474.373,152.803z"/>
				</g>
			</g>
			<g>
				<path style="fill:#25292B;" d="M474.941,210.796c-0.144,0-0.286-0.002-0.429-0.006c-4.886-0.143-8.119-3.369-8.255-3.506
					c-0.193-0.197-0.191-0.513,0.005-0.707c0.196-0.193,0.513-0.192,0.707,0.004c0.03,0.031,3.099,3.079,7.572,3.209
					c4.697,0.146,9.489-2.189,14.164-6.921c0.193-0.196,0.51-0.199,0.707-0.004c0.196,0.194,0.198,0.51,0.004,0.707
					C484.679,208.367,479.811,210.796,474.941,210.796z"/>
			</g>
			<g>
				<path style="fill:#25292B;" d="M515.356,178.337c-0.242,0-0.455-0.177-0.493-0.424c-0.042-0.273,0.146-0.528,0.418-0.57
					c2.472-0.379,4.608-1.332,6.18-2.753c1.758-1.59,2.767-3.805,2.699-5.927c-0.071-2.27-1.475-4.409-3.413-5.202
					c-2.024-0.83-4.604-0.026-5.633,1.752c-0.11,0.192-0.34,0.286-0.549,0.236c-0.216-0.052-0.371-0.238-0.383-0.459
					c-0.18-3.304,0.903-6.682,2.969-9.269c0.947-1.185,2.506-2.666,4.554-2.986c1.807-0.284,4.134,0.646,4.734,2.643
					c0.08,0.265-0.07,0.543-0.335,0.623c-0.262,0.079-0.543-0.071-0.622-0.335c-0.445-1.482-2.23-2.161-3.623-1.943
					c-1.729,0.271-3.09,1.576-3.927,2.622c-1.629,2.04-2.599,4.611-2.749,7.219c1.528-1.38,3.925-1.853,5.942-1.028
					c2.328,0.953,3.949,3.403,4.034,6.097c0.076,2.411-1.056,4.916-3.027,6.699c-1.718,1.554-4.034,2.591-6.699,3
					C515.407,178.335,515.381,178.337,515.356,178.337z"/>
			</g>
			<g>
				<path style="fill:#25292B;" d="M468.296,188.902c-0.224,0-0.427-0.15-0.484-0.376c-0.068-0.268,0.093-0.54,0.36-0.608
					c4.291-1.099,7.817-4.744,8.775-9.068c0.06-0.269,0.316-0.439,0.597-0.38c0.27,0.06,0.439,0.327,0.38,0.596
					c-1.037,4.684-4.856,8.63-9.504,9.821C468.378,188.897,468.337,188.902,468.296,188.902z"/>
			</g>
			<g>
				<path style="fill:#95BFCE;" d="M447.502,172.298c-7.942,0-14.403-6.674-14.403-14.877s6.461-14.877,14.403-14.877
					c7.941,0,14.402,6.674,14.402,14.877S455.443,172.298,447.502,172.298z M447.502,143.544c-7.391,0-13.403,6.225-13.403,13.877
					s6.013,13.877,13.403,13.877c7.39,0,13.402-6.225,13.402-13.877S454.891,143.544,447.502,143.544z"/>
			</g>
			<g>
				<path style="fill:#95BFCE;" d="M478.657,172.298c-7.942,0-14.403-6.674-14.403-14.877s6.461-14.877,14.403-14.877
					c7.941,0,14.402,6.674,14.402,14.877S486.598,172.298,478.657,172.298z M478.657,143.544c-7.391,0-13.403,6.225-13.403,13.877
					s6.013,13.877,13.403,13.877c7.39,0,13.402-6.225,13.402-13.877S486.046,143.544,478.657,143.544z"/>
			</g>
			<g>
				<path style="fill:#25292B;" d="M454.87,181.641c-0.163,0-0.317-0.08-0.411-0.215c-0.099-0.143-0.116-0.326-0.047-0.485
					c3.063-7.036,5.832-14.292,8.231-21.566c0.087-0.262,0.369-0.408,0.631-0.318c0.263,0.086,0.405,0.369,0.318,0.631
					c-2.325,7.048-4.996,14.079-7.943,20.911l10.536-0.557c0.282-0.017,0.512,0.198,0.525,0.473
					c0.015,0.276-0.197,0.511-0.473,0.526l-11.342,0.6C454.887,181.641,454.879,181.641,454.87,181.641z"/>
			</g>
			<g>
				<path style="fill:#95BFCE;" d="M492.289,155.087c-0.225,0-0.429-0.152-0.485-0.379c-0.066-0.268,0.097-0.539,0.364-0.606
					l28.023-6.979c0.27-0.066,0.54,0.096,0.606,0.365c0.066,0.268-0.097,0.539-0.364,0.606l-28.023,6.979
					C492.369,155.082,492.329,155.087,492.289,155.087z"/>
			</g>
			<g>
				<path style="fill:#95BFCE;" d="M464.754,157.921h-3.35c-0.276,0-0.5-0.224-0.5-0.5s0.224-0.5,0.5-0.5h3.35
					c0.276,0,0.5,0.224,0.5,0.5S465.03,157.921,464.754,157.921z"/>
			</g>
		</g>
		<g>
			<g>
				<path style="fill:#95BFCE;" d="M611.499,400.87l-0.392-0.043l-23.273-2.327l-8.755-0.878l0.776,8.857l2.063,23.375H380.484
					l5.916-40.365l2.14-14.612h-18.013l1.049-6.726l6.428-41.371l6.658-42.837l1.236-7.937
					c3.887-25.055,22.557-45.258,47.228-51.124l13.904-3.308l19.582-4.655l8.039,13.214l9.232,15.183l33.835-28.413l4.211,0.895
					l29.854,6.308l15.89,3.359c4.186,0.878,8.201,2.234,11.986,4.007c7.92,3.674,14.833,9.173,20.195,15.967
					c4.569,5.797,8.022,12.549,10.008,19.94c0.051,0.171,0.102,0.35,0.145,0.52l7.323,28.175l7.579,29.189l7.459,28.703
					l4.493,17.288c0.281,1.074,0.477,2.148,0.605,3.214C639.239,389.234,626.844,402.405,611.499,400.87z"/>
			</g>
			<g>
				<g>
					<g>
						<polygon style="fill:#75ADBC;" points="386.401,389.49 388.54,374.878 370.527,374.878 371.576,368.152 521.929,217.799 
							551.783,224.108 						"/>
					</g>
				</g>
				<g>
					<g>
						<polygon style="fill:#75ADBC;" points="474.65,230.135 378.004,326.781 384.661,283.944 447.029,221.576 466.611,216.921 
													"/>
					</g>
				</g>
				<g>
					<g>
						<path style="fill:#75ADBC;" d="M617.33,296.074l-133.78,133.78h-36.162L609.862,267.38c0.051,0.171,0.102,0.35,0.145,0.52
							L617.33,296.074z"/>
					</g>
				</g>
				<g>
					<g>
						<path style="fill:#75ADBC;" d="M599.854,247.44L417.439,429.855h-36.162l198.382-198.382
							C587.578,235.147,594.492,240.646,599.854,247.44z"/>
					</g>
				</g>
				<g>
					<g>
						<path style="fill:#75ADBC;" d="M611.499,400.87l-0.392-0.043l26.359-26.359C639.239,389.234,626.844,402.405,611.499,400.87z"
							/>
					</g>
				</g>
				<g>
					<g>
						<polygon style="fill:#75ADBC;" points="587.834,398.501 579.079,397.622 579.855,406.48 556.48,429.855 520.317,429.855 
							624.909,325.264 632.368,353.967 						"/>
					</g>
				</g>
			</g>
			<g>
				<path style="fill:#25292B;" d="M573.86,351.716c-0.213,0-0.41-0.137-0.478-0.351l-17.061-54.545
					c-0.082-0.264,0.064-0.544,0.328-0.627c0.27-0.083,0.544,0.065,0.627,0.328l17.061,54.545c0.082,0.264-0.064,0.544-0.328,0.627
					C573.96,351.709,573.909,351.716,573.86,351.716z"/>
			</g>
			<g>
				<path style="fill:#25292B;" d="M579.077,398.126c-0.014,0-0.027-0.001-0.041-0.002l-10.432-0.843
					c-0.275-0.021-0.48-0.263-0.458-0.538c0.021-0.275,0.271-0.479,0.538-0.458l10.432,0.843c0.275,0.021,0.48,0.263,0.458,0.538
					C579.553,397.928,579.335,398.126,579.077,398.126z"/>
			</g>
			<g>
				<path style="fill:#25292B;" d="M568.644,353.028c-0.225,0-0.428-0.151-0.485-0.378c-0.066-0.268,0.096-0.54,0.363-0.607
					l31.761-7.985c0.27-0.066,0.539,0.096,0.607,0.363c0.066,0.268-0.096,0.54-0.363,0.607l-31.761,7.985
					C568.725,353.023,568.684,353.028,568.644,353.028z"/>
			</g>
		</g>
		<g>
			<g>
				<rect x="368.16" y="286.244" style="fill:#4888A3;" width="184.848" height="120.506"/>
			</g>
			<g>
				<g>
					<path style="fill:#F2E9DA;" d="M515.83,366.627c-0.58,1.142-0.715,2.378-0.471,3.553c0.315,1.517,1.283,2.899,2.772,3.679
						l6.682,5.54c9.766,8.099,21.231,13.888,33.535,16.916l7.692,0.468l1.72-43.637l-1.096-3.099
						c-1.799-5.056-4.787-9.61-8.729-13.267l-4.928-4.778l-0.078,12.379l-23.939-10.765c-2.702-1.209-5.886,0.014-7.098,2.699
						c-0.476,1.069-0.578,2.214-0.358,3.274c0.278,1.338,1.061,2.571,2.231,3.366c-2.466-0.645-5.12,0.587-6.204,2.99
						c-0.476,1.069-0.578,2.214-0.355,3.29c0.274,1.322,1.035,2.525,2.204,3.321c-2.592-0.926-5.538,0.299-6.692,2.853
						c-0.476,1.069-0.578,2.214-0.358,3.274c0.339,1.632,1.425,3.091,3.057,3.824l3.397,1.524
						C517.579,364.477,516.488,365.367,515.83,366.627z"/>
				</g>
				<g>
					<path style="fill:#25292B;" d="M541.592,352.029c-0.073,0-0.146-0.016-0.217-0.05l-17.827-8.572
						c-0.249-0.119-0.354-0.418-0.233-0.667c0.119-0.25,0.418-0.354,0.667-0.233l17.827,8.572c0.249,0.119,0.354,0.418,0.233,0.667
						C541.957,351.924,541.778,352.029,541.592,352.029z"/>
				</g>
				<g>
					<path style="fill:#25292B;" d="M535.499,361.322c-0.077,0-0.155-0.018-0.229-0.056l-16.088-8.266
						c-0.245-0.126-0.343-0.427-0.216-0.673c0.126-0.246,0.429-0.344,0.673-0.216l16.088,8.266c0.245,0.126,0.343,0.427,0.216,0.673
						C535.855,361.224,535.679,361.322,535.499,361.322z"/>
				</g>
				<g>
					<path style="fill:#25292B;" d="M530.234,370.577c-0.079,0-0.159-0.019-0.234-0.058l-11.419-6.044
						c-0.243-0.13-0.337-0.433-0.208-0.677s0.433-0.336,0.677-0.208l11.419,6.044c0.243,0.13,0.337,0.433,0.208,0.677
						C530.587,370.481,530.413,370.577,530.234,370.577z"/>
				</g>
			</g>
			<g>
				<g>
					<g>
						<path style="fill:#F2E9DA;" d="M354.662,338.749c-0.094-1.302,0.348-2.527,1.148-3.444c0.799-0.917,1.94-1.538,3.242-1.633
							l13.157,0.012c2.604-0.189,4.887,1.786,5.076,4.389c0.094,1.295-0.349,2.52-1.148,3.437c-0.799,0.924-1.94,1.538-3.242,1.632
							l-13.157-0.013C357.134,343.32,354.851,341.346,354.662,338.749z"/>
					</g>
				</g>
				<g>
					<g>
						<path style="fill:#F2E9DA;" d="M353.379,347.949c-0.111-1.526,0.411-2.97,1.353-4.051c0.941-1.089,2.287-1.813,3.821-1.924
							l15.148-0.132c3.069-0.223,5.76,2.105,5.982,5.165c0.111,1.534-0.411,2.97-1.353,4.059c-0.942,1.081-2.287,1.805-3.822,1.916
							l-15.148,0.132C356.292,353.337,353.601,351.017,353.379,347.949z"/>
					</g>
				</g>
				<g>
					<g>
						<path style="fill:#F2E9DA;" d="M354.007,358.379c-0.111-1.534,0.411-2.97,1.353-4.059c0.941-1.089,2.287-1.813,3.821-1.924
							l15.148-0.132c3.069-0.223,5.76,2.105,5.983,5.173c0.111,1.534-0.411,2.97-1.353,4.051c-0.942,1.081-2.287,1.813-3.821,1.924
							l-15.149,0.132C356.92,363.767,354.229,361.44,354.007,358.379z"/>
					</g>
				</g>
				<g>
					<g>
						<path style="fill:#F2E9DA;" d="M354.558,367.906c-0.111-1.534,0.508-2.977,1.607-4.069c1.099-1.092,2.66-1.84,4.432-1.968
							l13.272,0.004c3.545-0.257,6.625,2.042,6.847,5.103c0.111,1.534-0.508,2.977-1.607,4.077c-1.099,1.1-2.66,1.84-4.432,1.968
							l-13.272-0.004C357.861,373.274,354.781,370.975,354.558,367.906z"/>
					</g>
				</g>
				<g>
					<path style="fill:#25292B;" d="M357.186,363.514c-0.271,0-0.494-0.218-0.5-0.49c-0.006-0.276,0.214-0.504,0.49-0.51
						l20.422-0.405c0.285,0.01,0.504,0.215,0.51,0.49c0.006,0.276-0.214,0.504-0.49,0.51l-20.422,0.405
						C357.193,363.514,357.189,363.514,357.186,363.514z"/>
				</g>
				<g>
					<path style="fill:#25292B;" d="M357.14,353.629c-0.27,0-0.492-0.214-0.5-0.485c-0.008-0.276,0.209-0.506,0.485-0.515
						l19.407-0.572c0.28-0.01,0.507,0.209,0.515,0.485s-0.209,0.506-0.485,0.515l-19.407,0.572
						C357.15,353.629,357.145,353.629,357.14,353.629z"/>
				</g>
				<g>
					<path style="fill:#25292B;" d="M375.141,342.882h-18.31c-0.276,0-0.5-0.224-0.5-0.5s0.224-0.5,0.5-0.5h18.31
						c0.276,0,0.5,0.224,0.5,0.5S375.418,342.882,375.141,342.882z"/>
				</g>
			</g>
			<g>
				<g>
					<g>
						<g>
							<path style="fill:#F2E9DA;" d="M423.057,370.955c-0.771,0-1.546-0.252-2.196-0.771l-30.604-24.444
								c-0.837-0.668-1.325-1.682-1.325-2.752s0.488-2.084,1.325-2.752l30.21-24.131c1.52-1.214,3.736-0.966,4.951,0.554
								s0.967,3.736-0.554,4.951l-26.763,21.379l27.157,21.692c1.521,1.214,1.768,3.431,0.554,4.951
								C425.117,370.501,424.092,370.955,423.057,370.955z"/>
						</g>
					</g>
				</g>
				<g>
					<g>
						<g>
							<path style="fill:#F2E9DA;" d="M469.922,370.955c-1.035,0-2.059-0.453-2.755-1.325c-1.214-1.52-0.967-3.737,0.554-4.951
								l27.157-21.692l-26.764-21.379c-1.521-1.214-1.768-3.431-0.554-4.951c1.215-1.52,3.432-1.768,4.951-0.554l30.211,24.131
								c0.837,0.668,1.325,1.682,1.325,2.752s-0.488,2.084-1.325,2.752l-30.604,24.444
								C471.47,370.703,470.693,370.955,469.922,370.955z"/>
						</g>
					</g>
				</g>
				<g>
					<g>
						<g>
							<path style="fill:#F2E9DA;" d="M439.617,377.419c-0.492,0.067-1.004,0.031-1.51-0.124c-1.86-0.572-2.904-2.544-2.332-4.403
								l18.938-61.565c0.571-1.86,2.543-2.906,4.403-2.332c1.86,0.572,2.904,2.544,2.332,4.403l-18.938,61.565
								C442.093,376.318,440.934,377.239,439.617,377.419z"/>
						</g>
					</g>
				</g>
			</g>
		</g>
	</g>
	<g>
		<g>
			<g>
				<g>
					<g>
						<g>
							<path style="fill:#25292B;" d="M260.264,400.799c-5.791,2.638-12.779,0.633-16.234-4.912
								c-45.374-72.84-83.26-67.568-83.637-67.506c0.211-0.035,0.317-0.064,0.317-0.064l-5.484-25.132
								c1.578-0.344,16.024-3.093,37.043,6.294c25.962,11.595,50.722,36.091,73.594,72.806c3.756,6.029,1.913,13.962-4.116,17.717
								C261.264,400.305,260.769,400.569,260.264,400.799z"/>
						</g>
					</g>
				</g>
				<g>
					<g>
						<rect x="81.629" y="386.017" style="fill:#366985;" width="59.791" height="43.88"/>
					</g>
				</g>
				<g>
					<g>
						<path style="fill:#F2E9DA;" d="M31.277,333.688c0-4.127,0.304-8.196,0.912-12.148c2.373-15.656,15.773-27.255,31.604-27.255
							h91.655c15.434,0,28.903,10.991,31.417,26.226c0.713,4.291,1.076,8.687,1.076,13.177c0,43.787-35.077,67.639-78.338,67.639
							c-5.343,0-10.558-0.362-15.597-1.087C58.228,395.13,31.277,372.073,31.277,333.688z"/>
					</g>
				</g>
				<g>
					<g>
						<path style="fill:#95BFCE;" d="M175.993,316.769h-69.29c-2.126,0-3.865-1.739-3.865-3.865v0c0-2.126,1.739-3.865,3.865-3.865
							h69.29c2.126,0,3.865,1.739,3.865,3.865v0C179.859,315.03,178.119,316.769,175.993,316.769z"/>
					</g>
					<g>
						<path style="fill:#95BFCE;" d="M175.993,328.235h-69.29c-2.126,0-3.865-1.739-3.865-3.865l0,0
							c0-2.126,1.739-3.865,3.865-3.865h69.29c2.126,0,3.865,1.739,3.865,3.865l0,0
							C179.859,326.495,178.119,328.235,175.993,328.235z"/>
					</g>
					<g>
						<circle style="fill:#366985;" cx="90.737" cy="318.637" r="8.991"/>
					</g>
					<g>
						<path style="fill:#25292B;" d="M73.562,391.254c-0.102,0-0.204-0.03-0.292-0.095c-10.498-7.584-10.634-22.766-10.634-22.918
							V299.61c0-0.276,0.224-0.5,0.5-0.5s0.5,0.224,0.5,0.5v68.631c0,0.146,0.141,14.827,10.22,22.108
							c0.224,0.162,0.274,0.475,0.112,0.698C73.87,391.182,73.717,391.254,73.562,391.254z"/>
					</g>
				</g>
				<g>
					<path style="fill:#95BFCE;" d="M35.845,360.657L35.845,360.657c-8.756,0-15.92-7.164-15.92-15.92v-31.269
						c0-8.756,7.164-15.92,15.92-15.92h0c8.756,0,15.92,7.164,15.92,15.92v31.269C51.765,353.493,44.601,360.657,35.845,360.657z"/>
				</g>
				<g>
					<g>
						<g>
							<path style="fill:#366985;" d="M221.18,318.452c-1.824,7.067-4.655,15.149-9.045,23.23
								c-11.44,21.116-35.659,46.273-85.973,46.273c-48.413,0-74.84-16.342-88.496-30.059c-5.737-5.763-9.804-11.568-12.651-16.675
								c-3.947-7.076-1.066-15.609,6.504-18.49c1.526-0.588,3.06-0.844,4.586-0.844c4.603,0,8.934,2.472,11.21,6.607
								c6.794,12.335,26.171,33.741,78.846,33.741c30.238,0,51.558-11.04,63.365-32.821c3.282-6.053,5.405-12.156,6.769-17.467
								c1.458-5.652,6.598-9.573,12.438-9.573C217.14,302.374,223.286,310.311,221.18,318.452z"/>
						</g>
					</g>
					<g>
						<circle style="fill:#95BFCE;" cx="214.331" cy="298.962" r="11.454"/>
					</g>
				</g>
				<g>
					<g>
						<g>
							<path style="fill:#F2E9DA;" d="M219.272,297.531c-3.376-0.452-6.738-1.424-9.978-2.954
								c-8.208-3.876-14.415-10.716-17.478-19.26c-3.063-8.545-2.615-17.77,1.261-25.978l0.654-1.384
								c1.792-3.795,6.321-5.423,10.117-3.627c3.795,1.792,5.42,6.322,3.627,10.117l-0.654,1.384
								c-2.142,4.537-2.389,9.636-0.697,14.358c1.693,4.722,5.124,8.503,9.66,10.646c9.366,4.422,20.581,0.401,25.004-8.963
								l0.654-1.385c1.794-3.794,6.322-5.416,10.118-3.626c3.795,1.793,5.418,6.323,3.626,10.118l-0.654,1.384
								C248.062,292.064,233.549,299.443,219.272,297.531z"/>
						</g>
					</g>
				</g>
				<g>
					<path style="fill:#25292B;" d="M123.417,279.714H99.728v13.436c0,6.542,5.303,11.845,11.845,11.845h0
						c6.542,0,11.845-5.303,11.845-11.845V279.714z"/>
				</g>
			</g>
			<g>
				<g>
					<path style="fill:#F2E9DA;" d="M149.847,280.793H80.411c-21.702,0-39.458-17.756-39.458-39.458v0
						c0-21.702,17.756-39.458,39.458-39.458h69.436c21.702,0,39.458,17.756,39.458,39.458v0
						C189.305,263.037,171.549,280.793,149.847,280.793z"/>
				</g>
				<g>
					<path style="fill:#366985;" d="M149.847,280.793H118.63c-21.702,0-39.458-17.756-39.458-39.458v0
						c0-21.702,17.756-39.458,39.458-39.458h31.217c21.702,0,39.458,17.756,39.458,39.458v0
						C189.305,263.037,171.549,280.793,149.847,280.793z"/>
				</g>
				<g>
					<path style="fill:#95BFCE;" d="M61.043,253.777L61.043,253.777c-8.146,0-14.812-6.665-14.812-14.811v-27.016
						c0-8.146,6.665-14.812,14.812-14.812h0c8.146,0,14.812,6.665,14.812,14.812v27.016
						C75.854,247.112,69.189,253.777,61.043,253.777z"/>
				</g>
				<g>
					<path style="fill:#25292B;" d="M61.043,242.625c-4.631,0-8.399-3.768-8.399-8.399v-17.537c0-4.631,3.768-8.399,8.399-8.399
						s8.399,3.768,8.399,8.399v17.537C69.442,238.857,65.674,242.625,61.043,242.625z M61.043,209.29
						c-4.08,0-7.399,3.319-7.399,7.399v17.537c0,4.08,3.319,7.399,7.399,7.399s7.399-3.319,7.399-7.399v-17.537
						C68.442,212.609,65.123,209.29,61.043,209.29z"/>
				</g>
				<g>
					<path style="fill:#25292B;" d="M61.043,225.957c-0.276,0-0.5-0.224-0.5-0.5v-32.901c0-0.276,0.224-0.5,0.5-0.5
						s0.5,0.224,0.5,0.5v32.901C61.543,225.734,61.319,225.957,61.043,225.957z"/>
				</g>
				<g>
					<circle style="fill:#366985;" cx="61.043" cy="174.94" r="9.4"/>
				</g>
				<g>
					<g>
						<ellipse style="fill:#95BFCE;" cx="119.791" cy="236.78" rx="13.11" ry="13.868"/>
					</g>
				</g>
				<g>
					<g>
						<ellipse style="fill:#95BFCE;" cx="172.229" cy="236.78" rx="13.11" ry="13.868"/>
					</g>
				</g>
				<g>
					<path style="fill:#25292B;" d="M61.043,193.056c-9.989,0-18.116-8.127-18.116-18.116s8.126-18.116,18.116-18.116
						s18.116,8.126,18.116,18.116S71.032,193.056,61.043,193.056z M61.043,157.824c-9.438,0-17.116,7.678-17.116,17.116
						c0,9.438,7.678,17.116,17.116,17.116s17.116-7.678,17.116-17.116C78.158,165.503,70.48,157.824,61.043,157.824z"/>
				</g>
			</g>
		</g>
		<g>
			<g>
				<path style="fill:#25292B;" d="M374.722,321.623l-34.543,108.231H180.926l35.924-112.571c0.946-2.958,3.7-4.97,6.803-4.97
					h144.266C372.752,312.314,376.188,317.02,374.722,321.623z"/>
			</g>
			<g>
				<path style="fill:#25292B;" d="M271.929,421.799v8.056H97.434c0-4.45,3.606-8.056,8.056-8.056H271.929z"/>
			</g>
			<g>
				<path style="fill:#F2E9DA;" d="M336.325,422.299H188.987c-0.161,0-0.312-0.077-0.406-0.208c-0.094-0.131-0.12-0.299-0.068-0.451
					l34.125-101.785c0.088-0.262,0.373-0.406,0.633-0.314c0.262,0.087,0.403,0.371,0.315,0.633l-33.905,101.126h146.643
					c0.276,0,0.5,0.224,0.5,0.5S336.601,422.299,336.325,422.299z"/>
			</g>
		</g>
		<path style="fill:#25292B;" d="M611.11,430.84c0,0.27-0.22,0.515-0.58,0.695c-0.36,0.18-0.85,0.29-1.39,0.29H55.61
			c-1.08,0-1.97-0.445-1.97-0.985c0-0.275,0.22-0.52,0.58-0.7c0.36-0.18,0.85-0.29,1.39-0.29h553.53
			C610.22,429.85,611.11,430.295,611.11,430.84z"/>
	</g>
	<g>
		<g>
			<g>
				<g>
					<g>
						<g>
							<path style="fill:#366985;" d="M200.838,153.511c-0.483,0-0.969-0.158-1.376-0.483l-19.173-15.314
								c-0.524-0.419-0.83-1.053-0.83-1.724s0.306-1.306,0.83-1.724l18.926-15.118c0.952-0.761,2.341-0.605,3.102,0.347
								c0.761,0.952,0.606,2.341-0.347,3.102l-16.767,13.394l17.014,13.59c0.953,0.76,1.108,2.149,0.347,3.102
								C202.128,153.227,201.486,153.511,200.838,153.511z"/>
						</g>
					</g>
				</g>
				<g>
					<g>
						<g>
							<path style="fill:#366985;" d="M230.198,153.511c-0.648,0-1.29-0.284-1.726-0.83c-0.761-0.952-0.606-2.341,0.347-3.102
								l17.014-13.59l-16.767-13.394c-0.953-0.76-1.108-2.149-0.347-3.102c0.761-0.952,2.15-1.108,3.102-0.347l18.927,15.118
								c0.524,0.419,0.83,1.053,0.83,1.724s-0.306,1.306-0.83,1.724l-19.173,15.314
								C231.168,153.353,230.681,153.511,230.198,153.511z"/>
						</g>
					</g>
				</g>
				<g>
					<g>
						<g>
							<path style="fill:#366985;" d="M211.212,157.56c-0.308,0.042-0.629,0.02-0.946-0.078c-1.165-0.359-1.819-1.594-1.461-2.758
								l11.864-38.57c0.358-1.165,1.593-1.82,2.758-1.461c1.165,0.359,1.819,1.594,1.461,2.758l-11.864,38.57
								C212.764,156.87,212.038,157.448,211.212,157.56z"/>
						</g>
					</g>
				</g>
			</g>
			<g>
				<path style="fill:#25292B;" d="M185.749,188.383c-0.072,0-0.145-0.016-0.212-0.047c-0.175-0.082-0.287-0.257-0.288-0.45
					l-0.084-19.142h-9.007c-3.542,0-6.425-2.882-6.425-6.425v-50.714c0-3.542,2.882-6.425,6.425-6.425h76.349
					c3.542,0,6.425,2.882,6.425,6.425v50.714c0,3.542-2.882,6.425-6.425,6.425h-42.709l-23.729,19.526
					C185.975,188.344,185.862,188.383,185.749,188.383z M176.157,106.179c-2.991,0-5.425,2.434-5.425,5.425v50.714
					c0,2.991,2.434,5.425,5.425,5.425h9.505c0.275,0,0.499,0.223,0.5,0.498l0.082,18.587l23.055-18.971
					c0.09-0.074,0.202-0.114,0.318-0.114h42.889c2.991,0,5.425-2.434,5.425-5.425v-50.714c0-2.991-2.434-5.425-5.425-5.425H176.157z
					"/>
			</g>
		</g>
		<g>
			<g>
				<path style="fill:#25292B;" d="M406.839,146.111c-0.098,0-0.195-0.029-0.28-0.086L388.1,133.51
					c-5.038,2.576-10.704,3.937-16.408,3.937c-19.895,0-36.08-16.186-36.08-36.08s16.186-36.08,36.08-36.08
					s36.08,16.186,36.08,36.08c0,7.829-2.457,15.26-7.108,21.505l6.655,22.598c0.06,0.202-0.015,0.42-0.185,0.545
					C407.046,146.079,406.943,146.111,406.839,146.111z M388.134,132.43c0.099,0,0.196,0.029,0.28,0.086l17.551,11.899l-6.332-21.5
					c-0.045-0.152-0.015-0.316,0.08-0.442c4.618-6.113,7.059-13.411,7.059-21.105c0-19.343-15.737-35.08-35.08-35.08
					s-35.08,15.737-35.08,35.08s15.737,35.08,35.08,35.08c5.645,0,11.25-1.37,16.211-3.96
					C387.975,132.449,388.055,132.43,388.134,132.43z"/>
			</g>
			<g>
				<circle style="fill:#4888A3;" cx="371.692" cy="100.764" r="27.517"/>
			</g>
			<g>
				<g>
					<polygon style="fill:#F2E9DA;" points="369.272,117.827 353.024,101.578 360.754,93.849 369.272,102.368 387.017,84.624 
						394.746,92.354 					"/>
				</g>
			</g>
		</g>
		<g>
			<g>
				<path style="fill:#4888A3;" d="M371.695,207.825v7.127H204.548v-7.127c0-3.973,3.214-7.186,7.186-7.186h152.774
					C368.481,200.639,371.695,203.853,371.695,207.825z"/>
			</g>
			<g>
				<path style="fill:#25292B;" d="M364.508,303.53H211.735c-4.238,0-7.687-3.448-7.687-7.687v-88.019
					c0-4.238,3.448-7.687,7.687-7.687h152.773c4.238,0,7.687,3.448,7.687,7.687v88.019
					C372.195,300.082,368.747,303.53,364.508,303.53z M211.735,201.139c-3.687,0-6.687,3-6.687,6.687v88.019
					c0,3.687,3,6.687,6.687,6.687h152.773c3.687,0,6.687-3,6.687-6.687v-88.019c0-3.687-3-6.687-6.687-6.687H211.735z"/>
			</g>
			<g>
				<rect x="349.82" y="206.023" style="fill:#F2E9DA;" width="15.799" height="4.774"/>
			</g>
			<g>
				<rect x="336.325" y="220.242" style="fill:#F2E9DA;" width="23.178" height="23.178"/>
			</g>
			<g>
				<rect x="336.325" y="248.229" style="fill:#F2E9DA;" width="23.178" height="23.178"/>
			</g>
			<g>
				<rect x="336.325" y="275.404" style="fill:#F2E9DA;" width="23.178" height="23.178"/>
			</g>
			<g>
				<g>
					<polygon style="fill:#4888A3;" points="345.67,239.453 337.385,231.167 341.604,226.948 345.67,231.013 354.225,222.459 
						358.444,226.679 					"/>
				</g>
			</g>
			<g>
				<g>
					<polygon style="fill:#4888A3;" points="345.67,268.316 337.384,260.029 341.603,255.81 345.67,259.876 354.225,251.321 
						358.444,255.541 					"/>
				</g>
			</g>
			<g>
				<g>
					<polygon style="fill:#4888A3;" points="345.67,294.741 337.385,286.454 341.604,282.235 345.67,286.301 354.225,277.747 
						358.444,281.966 					"/>
				</g>
			</g>
			<g>
				<g>
					<rect x="221.217" y="221.709" style="fill:#95BFCE;" width="111.225" height="4.582"/>
				</g>
				<g>
					<rect x="221.217" y="230.399" style="fill:#95BFCE;" width="111.225" height="4.582"/>
				</g>
				<g>
					<rect x="282.398" y="238.922" style="fill:#95BFCE;" width="50.043" height="4.582"/>
				</g>
			</g>
			<g>
				<g>
					<rect x="221.217" y="248.921" style="fill:#95BFCE;" width="111.225" height="4.582"/>
				</g>
				<g>
					<rect x="221.217" y="257.611" style="fill:#95BFCE;" width="111.225" height="4.582"/>
				</g>
				<g>
					<rect x="282.398" y="266.134" style="fill:#95BFCE;" width="50.043" height="4.582"/>
				</g>
			</g>
			<g>
				<g>
					<rect x="221.217" y="276.611" style="fill:#95BFCE;" width="111.225" height="4.582"/>
				</g>
				<g>
					<rect x="221.217" y="285.3" style="fill:#95BFCE;" width="111.225" height="4.582"/>
				</g>
				<g>
					<rect x="282.398" y="293.823" style="fill:#95BFCE;" width="50.043" height="4.582"/>
				</g>
			</g>
		</g>
		<g>
			<g>
				<g>
					<path style="fill:#95BFCE;" d="M334.614,189.254c-6.285,0-11.399-5.113-11.399-11.398v-62.359c0-5.083-4.136-9.219-9.219-9.219
						c-5.083,0-9.219,4.136-9.219,9.219v40.939c0,5.534-4.502,10.036-10.036,10.036h-0.355c-5.534,0-10.036-4.502-10.036-10.036
						v-24.054c0-4.594-3.737-8.331-8.331-8.331c-4.593,0-8.33,3.737-8.33,8.331v51.297c0,0.471-0.381,0.852-0.852,0.852
						s-0.852-0.382-0.852-0.852v-51.297c0-5.534,4.501-10.036,10.035-10.036s10.036,4.502,10.036,10.036v24.054
						c0,4.594,3.737,8.331,8.331,8.331h0.355c4.594,0,8.331-3.737,8.331-8.331v-40.939c0-6.024,4.9-10.924,10.924-10.924
						c6.023,0,10.924,4.901,10.924,10.924v62.359c0,5.345,4.348,9.693,9.694,9.693c5.345,0,9.693-4.349,9.693-9.693v-22.862
						c0-6.111,4.972-11.082,11.082-11.082c6.111,0,11.082,4.971,11.082,11.082v23.963c0,0.471-0.381,0.852-0.853,0.852
						c-0.471,0-0.852-0.382-0.852-0.852v-23.963c0-5.171-4.207-9.377-9.377-9.377c-5.171,0-9.377,4.207-9.377,9.377v22.862
						C346.012,184.141,340.899,189.254,334.614,189.254z"/>
				</g>
			</g>
			<g>
				<circle style="fill:#4888A3;" cx="275.283" cy="123.054" r="5.227"/>
			</g>
			<g>
				<circle style="fill:#4888A3;" cx="303.45" cy="143.974" r="5.227"/>
			</g>
			<g>
				<circle style="fill:#4888A3;" cx="324.923" cy="113.798" r="5.227"/>
			</g>
			<g>
				<circle style="fill:#4888A3;" cx="334.1" cy="187.737" r="5.227"/>
			</g>
			<g>
				<circle style="fill:#4888A3;" cx="365.619" cy="177.31" r="5.227"/>
			</g>
			<g>
				<circle style="fill:#4888A3;" cx="266.797" cy="184.027" r="5.227"/>
			</g>
		</g>
	</g>
</g>
</svg>
