<svg enable-background="new 0 0 512 512" height="512" viewBox="0 0 512 512" width="512" xmlns="http://www.w3.org/2000/svg"><g id="_x30_2_Book"><g><path d="m429.947 466.926v-91.173h-302.277c-25.177 0-45.587 20.41-45.587 45.587 0 25.177 20.41 45.586 45.587 45.586z" fill="#f2f5ec"/><path d="m181.582 8.989h248.365v366.764h-248.365z" fill="#f96a5a"/><path d="m245.013 102.659h121.502v112.509h-121.502z" fill="#f2f5ec"/><path d="m181.582 9.003v366.75h-53.949c-25.109 0-45.579 20.37-45.579 45.579v-366.75c0-25.21 20.471-45.579 45.579-45.579z" fill="#745efe"/><path d="m250.656 421.332v51.936c0 16.427-13.316 29.743-29.743 29.743h-33.084c-16.427 0-29.743-13.316-29.743-29.743v-51.936z" fill="#ffabad"/><g fill="#21325c"><path d="m127.67 474.893h22.614c.872 20.028 17.309 36.086 37.544 36.086h33.086c20.235 0 36.672-16.058 37.544-36.086h171.49c4.4 0 7.968-3.568 7.968-7.968 0-333.388 0-243.979 0-457.936 0-4.4-3.568-7.968-7.968-7.968-30.916.002 111.98-.006-302.317.016-29.526 0-53.547 24.021-53.547 53.547v366.746c0 .072.039.132.041.203.107 29.44 24.081 53.36 53.545 53.36zm115.016-1.626c0 12.007-9.766 21.776-21.772 21.776h-33.086c-12.007 0-21.772-9.77-21.772-21.776v-43.969h76.631v43.969zm179.294-14.31h-163.358v-37.627c0-4.4-3.568-7.968-7.968-7.968h-92.567c-4.4 0-7.968 3.568-7.968 7.968v37.627h-22.449c-20.745 0-37.619-16.878-37.619-37.619s16.874-37.619 37.619-37.619h294.31zm0-91.174h-232.429v-350.826h232.429zm-331.96-313.199c0-20.737 16.874-37.611 37.611-37.611h45.984v350.811h-45.945-.039c-14.645 0-27.935 5.91-37.611 15.469z"/><path d="m245.013 223.135h121.502c4.4 0 7.968-3.568 7.968-7.968v-112.506c0-4.4-3.568-7.968-7.968-7.968h-121.502c-4.4 0-7.968 3.568-7.968 7.968v112.507c0 4.4 3.567 7.967 7.968 7.967zm7.968-112.506h105.566v96.57h-105.566z"/></g></g></g></svg>