<svg height="512" viewBox="0 0 64 64" width="512" xmlns="http://www.w3.org/2000/svg"><g id="Ikon"><path d="m61 28.24c0 4.2681-4.1563 7.7316-9.2735 7.7316h-39.3507c-5.0713 0-10.848-4.2522-8.9131-9.87 1.9809-5.7508 10.4166-8.3261 15.08-5.37-4.5895-9.4431 5.6156-16.1116 14.3373-15.6157 8.2849.4707 18.9693 6.7642 14.7127 15.6161 5.1127-3.2869 13.4073.2159 13.4073 7.508z" fill="#bbdefb"/><g fill="#ffb300"><circle cx="49.063" cy="51.991" r="2"/><circle cx="57.063" cy="43.991" r="2"/><circle cx="14.937" cy="51.991" r="2"/><circle cx="6.937" cy="43.991" r="2"/><circle cx="32" cy="57" r="2"/></g></g><g id="line"><path d="m57.0625 40.9912a2.995 2.995 0 0 0 -2.8157 2h-4.2468a1.0013 1.0013 0 0 1 -1-1v-5.02h2.7266c5.6645.0005 10.2734-3.9165 10.2734-8.7312a9.5331 9.5331 0 0 0 -5.0552-8.4663 10.1893 10.1893 0 0 0 -7.6333-.9033 8.942 8.942 0 0 0 -1.0547-6.727c-2.8672-4.8609-9.8774-7.7168-15.32-8.0264-5.9272-.3316-12.039 2.3769-14.852 6.6a9.6976 9.6976 0 0 0 -1.312 8.1567 12.191 12.191 0 0 0 -7.2417.3809 10.9811 10.9811 0 0 0 -7.0132 6.5215 7.2467 7.2467 0 0 0 .98 6.8174 11.2931 11.2931 0 0 0 8.8789 4.3779h2.6232v5.02a1.0013 1.0013 0 0 1 -1 1h-4.2468a3 3 0 1 0 0 2h4.2468a3.0033 3.0033 0 0 0 3-3v-5.02h6v13.02a1.0013 1.0013 0 0 1 -1 1h-4.2468a3 3 0 1 0 0 2h4.2468a3.0033 3.0033 0 0 0 3-3v-13.0197h6v17.2126a3 3 0 1 0 2 0v-17.2126h6v13.02a3.0033 3.0033 0 0 0 3 3h4.2468a3 3 0 1 0 0-2h-4.2468a1.0013 1.0013 0 0 1 -1-1v-13.02h6v5.02a3.0033 3.0033 0 0 0 3 3h4.2468a2.9947 2.9947 0 1 0 2.8157-4zm-50.125 4a1 1 0 1 1 1-1 1.0013 1.0013 0 0 1 -1 1zm8 8a1 1 0 1 1 1-1 1.0013 1.0013 0 0 1 -1 1zm17.0625 5.0088a1 1 0 1 1 1-1 1.0013 1.0013 0 0 1 -1 1zm17.0625-7.0088a1 1 0 1 1 -1 1 1.0013 1.0013 0 0 1 1-1zm-43.9375-19.5591a5.3265 5.3265 0 0 1 -.7168-5.0044 9.1318 9.1318 0 0 1 5.7842-5.2856c2.5218-.897 5.6413-.9412 7.8154.4346a1.0057 1.0057 0 0 0 1.4346-1.2818 8.1558 8.1558 0 0 1 .3066-8.4687c2.4-3.6035 7.9-6.01 13.0742-5.7119 4.9126.2788 11.2 2.7885 13.711 7.0454a7.1985 7.1985 0 0 1 .1572 7.1391 1.0056 1.0056 0 0 0 1.4419 1.2744 7.81 7.81 0 0 1 7.853-.0439 7.4649 7.4649 0 0 1 4.0137 6.7107c0 3.7119-3.7114 6.7315-8.2734 6.7315h-39.3506a9.21 9.21 0 0 1 -7.251-3.5394zm51.9375 13.5591a1 1 0 1 1 1-1 1.0013 1.0013 0 0 1 -1 1z"/></g></svg>