<svg id="svg17515" height="32" viewBox="0 0 32 32.000001" width="32" xmlns="http://www.w3.org/2000/svg" xmlns:cc="http://creativecommons.org/ns#" xmlns:dc="http://purl.org/dc/elements/1.1/" xmlns:inkscape="http://www.inkscape.org/namespaces/inkscape" xmlns:rdf="http://www.w3.org/1999/02/22-rdf-syntax-ns#" xmlns:sodipodi="http://sodipodi.sourceforge.net/DTD/sodipodi-0.dtd" xmlns:svg="http://www.w3.org/2000/svg"><clipPath id="clipPath32617-9-8-8-9"><circle id="path32619-2-3-5-1" cx="-1231.758656" cy="-5391.883832" r="360.248576"/></clipPath><clipPath id="clipPath19550"><circle id="circle19552" cx="-1231.758656" cy="-5391.883832" r="360.248576"/></clipPath><g id="layer1" transform="translate(0 -1020.362)"><g id="g13606" fill-rule="evenodd" transform="translate(467.945 640.963)"><path id="path13572" d="m-466.91211 381.58681a.50005.50005 0 0 0 -.50195.48437l-.0625 2.125a.50005.50005 0 0 0 .49414.51563l.85547.008-.0996 2.2832a.50005.50005 0 0 0 .5039.52149l.68555-.006.0605 21.19531a.50005.50005 0 0 0 .5.49805h25.0625a.50005.50005 0 0 0 .49804-.49414l.24219-21.43945.32617-.004a.50005.50005 0 0 0 .49414-.48828l.0449-1.83203.88867.008a.50005.50005 0 0 0 .50586-.5v-2.25a.50005.50005 0 0 0 -.49805-.5z" text-indent="0" text-align="start" text-decoration-line="none" text-decoration-style="solid" text-decoration-color="#000000" text-transform="none" white-space="normal" isolation="auto" mix-blend-mode="normal" solid-color="#000000" solid-opacity="1"/><g fill="#ea6153"><path id="path13570" d="m-466.42969 382.58876 29.01563.1211v1.24804l-29.04883-.24218z" text-indent="0" text-align="start" text-decoration-line="none" text-decoration-style="solid" text-decoration-color="#000000" text-transform="none" white-space="normal" isolation="auto" mix-blend-mode="normal" solid-color="#000000" solid-opacity="1"/><path id="path13568" d="m-465.12695 384.72743 26.32031.21875-.0332 1.33204-26.36524.24218z" text-indent="0" text-align="start" text-decoration-line="none" text-decoration-style="solid" text-decoration-color="#000000" text-transform="none" white-space="normal" isolation="auto" mix-blend-mode="normal" solid-color="#000000" solid-opacity="1"/><path id="path13566" d="m-439.67188 387.28603-.0234 1.97265-6.65821-.0234.14649-1.89063z" text-indent="0" text-align="start" text-decoration-line="none" text-decoration-style="solid" text-decoration-color="#000000" text-transform="none" white-space="normal" isolation="auto" mix-blend-mode="normal" solid-color="#000000" solid-opacity="1"/><path id="path13564" d="m-447.21289 387.35439-.14258 1.87695-9.28125-.0332.0273-1.75782z" text-indent="0" text-align="start" text-decoration-line="none" text-decoration-style="solid" text-decoration-color="#000000" text-transform="none" white-space="normal" isolation="auto" mix-blend-mode="normal" solid-color="#000000" solid-opacity="1"/><path id="path13562" d="m-457.60938 387.45009-.0273 1.74609-6.39648-.0234-.004-1.66407z" text-indent="0" text-align="start" text-decoration-line="none" text-decoration-style="solid" text-decoration-color="#000000" text-transform="none" white-space="normal" isolation="auto" mix-blend-mode="normal" solid-color="#000000" solid-opacity="1"/><path id="path13560" d="m-464.0293 390.17275 1.55469.006-.0566 1.88281-1.49414-.0469z" text-indent="0" text-align="start" text-decoration-line="none" text-decoration-style="solid" text-decoration-color="#000000" text-transform="none" white-space="normal" isolation="auto" mix-blend-mode="normal" solid-color="#000000" solid-opacity="1"/><path id="path13558" d="m-461.47656 390.18251 9.3789.0332-.041.79101c-.70281.0617-1.4034.19494-2.11133.41406-.63731.19727-1.24478.49378-1.82227.8418l-5.45898-.16992z" text-indent="0" text-align="start" text-decoration-line="none" text-decoration-style="solid" text-decoration-color="#000000" text-transform="none" white-space="normal" isolation="auto" mix-blend-mode="normal" solid-color="#000000" solid-opacity="1"/><path id="path13556" d="m-451.0957 390.21767 8.56445.0312.21094 2.07226-5.14453-.0547c-.54424-.39421-1.12804-.7351-1.77149-.94922-.64304-.21399-1.27287-.32695-1.89844-.35547z" text-indent="0" text-align="start" text-decoration-line="none" text-decoration-style="solid" text-decoration-color="#000000" text-transform="none" white-space="normal" isolation="auto" mix-blend-mode="normal" solid-color="#000000" solid-opacity="1"/><path id="path13554" d="m-441.52539 390.25282 1.81836.006-.0234 2.08985-1.58398-.0176z" text-indent="0" text-align="start" text-decoration-line="none" text-decoration-style="solid" text-decoration-color="#000000" text-transform="none" white-space="normal" isolation="auto" mix-blend-mode="normal" solid-color="#000000" solid-opacity="1"/></g><path id="path13552" d="m-451.72852 391.954c.72084-.0291 1.43383.065 2.17774.3125 1.25996.41928 2.3983 1.41411 3.26367 2.52148.8378 1.07208 1.5657 2.35076 1.58203 3.57422.0478 3.58172-.009 9.08293-.0176 9.84961h-1.13867c.0765-.19825.10722-.25805.21485-.58399.20051-.60721.41425-1.32382.41992-1.94335.007-.76193-.24645-1.68813-.48828-2.47071-.24184-.78258-.48438-1.40429-.48438-1.40429a.50005.50005 0 0 0 -.96484.14843s-.0217.29939-.0801.66211-.17867.79766-.25781.93164c-.0541.0915-.26774.26454-.42383.41602.0295-.15808.0366-.14044.0644-.31445.15166-.94891.28053-2.06396.0547-2.94141-.4054-1.57501-1.45464-2.94707-2.66406-3.94727-.61496-.50857-1.53969-.88826-2.33985-1.18164-.80015-.29338-1.4707-.47851-1.4707-.47851a.50005.50005 0 0 0 -.14844-.0176.50005.50005 0 0 0 -.41211.76172s1.04877 1.75478 1.29297 2.54297c.26841.86634.43562 1.77207.35547 2.61718-.008.0854-.0823.26492-.11328.39063-.0618-.21169-.0675-.43592-.17383-.62305-.27834-.49006-.75636-.89606-1.17773-1.23633-.42138-.34027-.79102-.58789-.79102-.58789a.50005.50005 0 0 0 -.77344.47852s.0515.41476.0703.92383c.0188.50906-.0202 1.12635-.10938 1.37695-.12557.35273-.44342.682-.83594 1.05859-.39252.3766-.85809.79838-1.09765 1.43165-.32577.86112-.38834 1.83519-.17578 2.73046.10882.45841.37738.88612.625 1.25977h-1.41211c.0117-.53182.14448-6.51745.18164-10.18359.0115-1.13702.6922-2.34475 1.50586-3.30664.90722-1.0725 2.18023-1.93237 3.51562-2.34571.77704-.24051 1.50572-.39277 2.22656-.42187z" fill="#ed7c4f" text-indent="0" text-align="start" text-decoration-line="none" text-decoration-style="solid" text-decoration-color="#000000" text-transform="none" white-space="normal" isolation="auto" mix-blend-mode="normal" solid-color="#000000" solid-opacity="1"/><path id="path13550" d="m-464.02148 393.01454 6.61914.20704c-.29815.26635-.57668.55164-.83204.85351-.33422.39512-.64293.84357-.91992 1.31641l-4.86132-.18164z" fill="#ea6153" text-indent="0" text-align="start" text-decoration-line="none" text-decoration-style="solid" text-decoration-color="#000000" text-transform="none" white-space="normal" isolation="auto" mix-blend-mode="normal" solid-color="#000000" solid-opacity="1"/><path id="path13548" d="m-446.27539 393.27822 6.53516.0684-.0195 1.83203-5.05468-.041c-.21774-.33923-.44956-.66286-.68555-.96484-.23871-.30547-.49751-.60751-.77539-.89453z" fill="#ea6153" text-indent="0" text-align="start" text-decoration-line="none" text-decoration-style="solid" text-decoration-color="#000000" text-transform="none" white-space="normal" isolation="auto" mix-blend-mode="normal" solid-color="#000000" solid-opacity="1"/><path id="path13546" d="m-444.25391 396.14345 2.01172.0156.0859 2.01953-1.55859.0703c-.0266-.7414-.23246-1.44793-.53907-2.10547z" fill="#ea6153" text-indent="0" text-align="start" text-decoration-line="none" text-decoration-style="solid" text-decoration-color="#000000" text-transform="none" white-space="normal" isolation="auto" mix-blend-mode="normal" solid-color="#000000" solid-opacity="1"/><path id="path13544" d="m-441.24219 396.16689 1.47071.0117-.0215 1.89453-1.36328.0605z" fill="#ea6153" text-indent="0" text-align="start" text-decoration-line="none" text-decoration-style="solid" text-decoration-color="#000000" text-transform="none" white-space="normal" isolation="auto" mix-blend-mode="normal" solid-color="#000000" solid-opacity="1"/><path id="path13542" d="m-464.01172 396.20986 1.37695.0527.13086 2.1543-1.50195-.041z" fill="#ea6153" text-indent="0" text-align="start" text-decoration-line="none" text-decoration-style="solid" text-decoration-color="#000000" text-transform="none" white-space="normal" isolation="auto" mix-blend-mode="normal" solid-color="#000000" solid-opacity="1"/><path id="path13540" d="m-461.63086 396.2997 1.98047.0742c-.19802.52186-.3204 1.07363-.32617 1.64453-.002.16762-.006.28844-.008.4668l-1.51562-.041z" fill="#ea6153" text-indent="0" text-align="start" text-decoration-line="none" text-decoration-style="solid" text-decoration-color="#000000" text-transform="none" white-space="normal" isolation="auto" mix-blend-mode="normal" solid-color="#000000" solid-opacity="1"/><path id="path13538" d="m-453.42969 396.43251c.1363.0464.12548.035.27539.0899.75886.27824 1.6459.68172 2.04492 1.01172 1.07935.89261 2.001 2.12643 2.33594 3.42773.14182.55097.0672 1.63806-.0762 2.53516-.14338.89711-.33008 1.61914-.33008 1.61914a.50005.50005 0 0 0 .75586.54687s.33169-.21536.71094-.51172c.37924-.29636.81006-.64787 1.07227-1.09179.0305-.0516.0232-.11226.0488-.16602.17988.64722.36922 1.36487.36524 1.78125-.003.36347-.18128 1.06975-.36914 1.63867-.16554.50128-.2932.80817-.33008.89844h-9.59375c-.0624-.0801-.16995-.21208-.35547-.49023-.23268-.34888-.47441-.80174-.52148-1-.16359-.68903-.11368-1.48461.13671-2.14649.13348-.35284.45895-.68393.85352-1.0625s.85988-.80481 1.08789-1.44531c.18-.50565.1708-1.09605.1543-1.625.33826.29003.70511.63561.81445.82812.11545.20328.2525.75671.31836 1.21875.0659.46204.0859.8418.0859.8418a.50005.50005 0 0 0 .95312.18359s.17483-.37864.35938-.85937c.18454-.48074.38561-1.04713.43359-1.55274.0985-1.03803-.10314-2.06729-.39453-3.00781-.20587-.66446-.49995-1.07695-.83594-1.66211z" fill="#fad741" text-indent="0" text-align="start" text-decoration-line="none" text-decoration-style="solid" text-decoration-color="#000000" text-transform="none" white-space="normal" isolation="auto" mix-blend-mode="normal" solid-color="#000000" solid-opacity="1"/><path id="path13535" d="m-439.80469 399.07314-.0254 2.18164-3.87304-.13672c-.001-.64362.003-1.28021-.002-1.86914z" fill="#ea6153" text-indent="0" text-align="start" text-decoration-line="none" text-decoration-style="solid" text-decoration-color="#000000" text-transform="none" white-space="normal" isolation="auto" mix-blend-mode="normal" solid-color="#000000" solid-opacity="1"/><path id="path13533" d="m-464.00391 399.37782 4.00196.10743c-.0113.78708-.0186 1.04155-.0332 1.87695l-3.96289-.0312z" fill="#ea6153" text-indent="0" text-align="start" text-decoration-line="none" text-decoration-style="solid" text-decoration-color="#000000" text-transform="none" white-space="normal" isolation="auto" mix-blend-mode="normal" solid-color="#000000" solid-opacity="1"/><path id="path13531" d="m-443.70117 402.12001 1.29687.0469-.0293 1.98633h-1.26563c.003-.67811-.002-1.32413-.002-2.03321z" fill="#ea6153" text-indent="0" text-align="start" text-decoration-line="none" text-decoration-style="solid" text-decoration-color="#000000" text-transform="none" white-space="normal" isolation="auto" mix-blend-mode="normal" solid-color="#000000" solid-opacity="1"/><path id="path13529" d="m-441.4043 402.20204 1.5625.0547-.0215 1.89649h-1.57031z" fill="#ea6153" text-indent="0" text-align="start" text-decoration-line="none" text-decoration-style="solid" text-decoration-color="#000000" text-transform="none" white-space="normal" isolation="auto" mix-blend-mode="normal" solid-color="#000000" solid-opacity="1"/><path id="path13527" d="m-463.99609 402.33095 1.53906.0117.0293 2.01367-1.5625.0137z" fill="#ea6153" text-indent="0" text-align="start" text-decoration-line="none" text-decoration-style="solid" text-decoration-color="#000000" text-transform="none" white-space="normal" isolation="auto" mix-blend-mode="normal" solid-color="#000000" solid-opacity="1"/><path id="path13525" d="m-461.45508 402.35048 1.40235.0117c-.0159.85946-.0206 1.24837-.0352 1.97461l-1.33984.0117z" fill="#ea6153" text-indent="0" text-align="start" text-decoration-line="none" text-decoration-style="solid" text-decoration-color="#000000" text-transform="none" white-space="normal" isolation="auto" mix-blend-mode="normal" solid-color="#000000" solid-opacity="1"/><path id="path13523" d="m-443.69922 405.15322h3.82422l-.0352 3.05859h-3.8125c.004-.34337.0137-1.37018.0234-3.05859z" fill="#ea6153" text-indent="0" text-align="start" text-decoration-line="none" text-decoration-style="solid" text-decoration-color="#000000" text-transform="none" white-space="normal" isolation="auto" mix-blend-mode="normal" solid-color="#000000" solid-opacity="1"/><path id="path14262" d="m-460.10547 405.33681c-.0183.88918-.0477 2.7315-.0508 2.875h-3.82227l-.008-2.8418z" fill="#ea6153" text-indent="0" text-align="start" text-decoration-line="none" text-decoration-style="solid" text-decoration-color="#000000" text-transform="none" white-space="normal" isolation="auto" mix-blend-mode="normal" solid-color="#000000" solid-opacity="1"/><path id="path14315" d="m-455.33789 403.30273a.250025.250025 0 0 0 -.13477.041l-1.67187 1.07813a.250025.250025 0 1 0 .27148.41992l1.67188-1.07813a.250025.250025 0 0 0 -.13672-.46094z" text-indent="0" text-align="start" text-decoration-line="none" text-decoration-style="solid" text-decoration-color="#000000" text-transform="none" white-space="normal" isolation="auto" mix-blend-mode="normal" solid-color="#000000" solid-opacity="1"/><path id="path14317" d="m-455.12891 404.06836a.250025.250025 0 0 0 -.13281.0469l-2.20312 1.53125a.25033147.25033147 0 1 0 .28711.41016l2.20312-1.53125a.250025.250025 0 0 0 -.1543-.45703z" text-indent="0" text-align="start" text-decoration-line="none" text-decoration-style="solid" text-decoration-color="#000000" text-transform="none" white-space="normal" isolation="auto" mix-blend-mode="normal" solid-color="#000000" solid-opacity="1"/><path id="path14319" d="m-454.76562 404.83398a.250025.250025 0 0 0 -.13477.0449l-2.35938 1.60937a.25082543.25082543 0 1 0 .28321.41406l2.35937-1.60937a.250025.250025 0 0 0 -.14843-.45899z" text-indent="0" text-align="start" text-decoration-line="none" text-decoration-style="solid" text-decoration-color="#000000" text-transform="none" white-space="normal" isolation="auto" mix-blend-mode="normal" solid-color="#000000" solid-opacity="1"/><path id="path14321" d="m-454.57031 405.72461a.250025.250025 0 0 0 -.13281.0488l-2.26563 1.64062a.25021805.25021805 0 1 0 .29492.4043l2.26563-1.64063a.250025.250025 0 0 0 -.16211-.45312z" text-indent="0" text-align="start" text-decoration-line="none" text-decoration-style="solid" text-decoration-color="#000000" text-transform="none" white-space="normal" isolation="auto" mix-blend-mode="normal" solid-color="#000000" solid-opacity="1"/><path id="path14323" d="m-454.25977 406.62695a.25002499.25002499 0 0 0 -.15625.0527l-2.19726 1.6289a.25059175.25059175 0 1 0 .29883.40235l2.19531-1.63086a.25002499.25002499 0 0 0 -.14063-.45313z" text-indent="0" text-align="start" text-decoration-line="none" text-decoration-style="solid" text-decoration-color="#000000" text-transform="none" white-space="normal" isolation="auto" mix-blend-mode="normal" solid-color="#000000" solid-opacity="1"/><path id="path14325" d="m-453.37695 407.09961a.250025.250025 0 0 0 -.13086.0508l-1.95313 1.4375a.250025.250025 0 1 0 .29492.40234l1.95313-1.4375a.250025.250025 0 0 0 -.16406-.45312z" text-indent="0" text-align="start" text-decoration-line="none" text-decoration-style="solid" text-decoration-color="#000000" text-transform="none" white-space="normal" isolation="auto" mix-blend-mode="normal" solid-color="#000000" solid-opacity="1"/></g></g></svg>