<svg width="630" height="630" viewBox="0 0 630 630" fill="none" xmlns="http://www.w3.org/2000/svg">
<g clip-path="url(#clip0_106:43)">
<path d="M875 0H-245V630H875V0Z" fill="#3000FF"/>
<path d="M-799.697 926.862C-722.975 916.795 -477.698 860.583 -339.368 866.46C-201.038 872.338 -108.043 942.133 30.285 962.128C168.613 982.124 345.993 999.917 490.602 986.433C635.211 972.949 750.738 891.154 897.938 881.225C1045.14 871.296 1294.49 919.256 1373.8 926.862L1373.8 -361.138L-799.697 -361.138L-799.697 926.862Z" fill="url(#paint0_linear_106:43)"/>
<path d="M-799.696 809.772C-739.441 799.306 -554.573 749.851 -438.163 746.979C-321.754 744.107 -225.276 779.953 -101.238 792.539C22.7996 805.126 172.479 825.631 306.065 822.496C439.65 819.361 589.322 775.666 700.276 773.73C811.229 771.793 859.531 804.872 971.786 810.879C1084.04 816.886 1306.8 809.956 1373.8 809.772V-361.137L-799.696 -361.137L-799.696 809.772Z" fill="url(#paint1_linear_106:43)"/>
<path d="M-799.696 692.679C-738.967 694.415 -566.058 696.566 -435.321 703.098C-304.583 709.631 -137.377 742.678 -15.2701 731.872C106.837 721.066 189.742 638.959 297.32 638.264C404.898 637.569 517.023 711.066 630.197 727.703C743.37 744.341 852.428 743.928 976.363 738.09C1100.3 732.253 1307.56 700.247 1373.8 692.679V-361.14L-799.696 -361.14L-799.696 692.679Z" fill="#342980"/>
<path d="M-799.696 575.587C-742.657 573.895 -571.437 561.269 -457.461 565.434C-343.486 569.6 -236.456 605.646 -115.84 600.583C4.7757 595.519 128.506 542.983 266.235 535.056C403.964 527.129 578.268 553.68 710.535 553.019C842.803 552.359 949.295 527.333 1059.84 531.094C1170.38 534.856 1321.48 568.172 1373.8 575.587V-361.14L-799.696 -361.14L-799.696 575.587Z" fill="#5140BC"/>
<path d="M-819 460.535C-760.391 452.264 -579.582 407.98 -467.349 410.911C-355.116 413.842 -252.163 470.336 -145.603 478.12C-39.0428 485.904 81.5884 455.339 172.013 457.615C262.438 459.892 306.561 486.556 396.945 491.777C487.33 496.999 603.914 496.496 714.32 488.943C824.726 481.39 952.685 451.193 1059.38 446.458C1166.08 441.723 1305.31 458.189 1354.5 460.535V-359.101L-819 -359.101L-819 460.535Z" fill="#7E6FDB"/>
<path d="M-799.696 341.405C-753.441 346.004 -616.738 363.981 -522.162 369.001C-427.587 374.021 -337.866 384.951 -232.243 371.525C-126.62 358.099 -10.4396 285.205 111.574 288.442C233.587 291.68 389.795 391.393 499.838 390.949C609.882 390.505 685.012 288.451 771.837 285.777C858.663 283.102 920.464 365.632 1020.79 374.904C1121.12 384.175 1314.97 346.988 1373.8 341.405V-361.14L-799.696 -361.14L-799.696 341.405Z" fill="#B6ACE9"/>
<path d="M-799.696 224.316C-746.941 232.24 -598.378 270.837 -483.168 271.862C-367.957 272.887 -245.32 237.498 -108.433 230.465C28.4545 223.432 213.842 221.868 338.156 229.664C462.47 237.461 520.176 288.168 637.452 277.243C754.728 266.319 919.086 172.937 1041.81 164.115C1164.54 155.294 1318.47 214.282 1373.8 224.316V-361.139L-799.696 -361.139L-799.696 224.316Z" fill="#E8E5F8"/>
<path d="M-799.696 107.225C-730.258 105.133 -521.042 91.2186 -383.07 94.6691C-245.097 98.1196 -113.74 117.051 28.1388 127.928C170.018 138.805 314.736 159.69 468.206 159.931C621.676 160.173 798.026 138.161 948.959 129.377C1099.89 120.593 1303 110.917 1373.8 107.225V-361.138L-799.696 -361.138L-799.696 107.225Z" fill="url(#paint2_linear_106:43)"/>
<path d="M-799.696 -9.86747C-760.951 -4.42307 -652.688 14.9354 -567.225 22.799C-481.761 30.6626 -385.866 34.1618 -286.917 37.3142C-187.967 40.4665 -69.0665 41.3789 26.4711 41.7132C122.009 42.0476 198.372 57.3066 286.309 39.3205C374.246 21.3343 453.247 -64.1212 554.094 -66.204C654.942 -68.2867 794.832 12.166 891.394 26.8241C987.956 41.4823 1053.06 27.8603 1133.47 21.7451C1213.87 15.6298 1333.75 -4.59872 1373.8 -9.86747V-361.14L-799.696 -361.14L-799.696 -9.86747Z" fill="#7E6FDB"/>
</g>
<defs>
<linearGradient id="paint0_linear_106:43" x1="-799.697" y1="855.912" x2="1340.26" y2="1199.86" gradientUnits="userSpaceOnUse">
<stop stop-color="#0500FF"/>
</linearGradient>
<linearGradient id="paint1_linear_106:43" x1="-799.696" y1="704.422" x2="1323.97" y2="1094.28" gradientUnits="userSpaceOnUse">
<stop stop-color="#532BFF"/>
<stop offset="0.0909091" stop-color="#302BFF"/>
</linearGradient>
<linearGradient id="paint2_linear_106:43" x1="-799.696" y1="125.436" x2="-719.996" y2="-411.434" gradientUnits="userSpaceOnUse">
<stop stop-color="#4E12B0"/>
<stop offset="1" stop-color="#3C12A4"/>
</linearGradient>
<clipPath id="clip0_106:43">
<rect width="1120" height="630" fill="white" transform="translate(-245)"/>
</clipPath>
</defs>
</svg>
